<?xml version="1.0" encoding="UTF-8" standalone="no"?>
<!-- Generator: Adobe Illustrator 16.0.0, SVG Export Plug-In . SVG Version: 6.00 Build 0)  -->

<svg
   xmlns:dc="http://purl.org/dc/elements/1.1/"
   xmlns:cc="http://creativecommons.org/ns#"
   xmlns:rdf="http://www.w3.org/1999/02/22-rdf-syntax-ns#"
   xmlns:svg="http://www.w3.org/2000/svg"
   xmlns="http://www.w3.org/2000/svg"
   xmlns:sodipodi="http://sodipodi.sourceforge.net/DTD/sodipodi-0.dtd"
   xmlns:inkscape="http://www.inkscape.org/namespaces/inkscape"
   version="1.1"
   id="Layer_1"
   x="0px"
   y="0px"
   width="600"
   height="600"
   viewBox="0 0 600 600"
   enable-background="new 0 0 500 500"
   xml:space="preserve"
   sodipodi:docname="ilust.svg"
   inkscape:version="0.92.4 (5da689c313, 2019-01-14)"><metadata
   id="metadata399"><rdf:RDF><cc:Work
       rdf:about=""><dc:format>image/svg+xml</dc:format><dc:type
         rdf:resource="http://purl.org/dc/dcmitype/StillImage" /><dc:title /></cc:Work></rdf:RDF></metadata><defs
   id="defs397" /><sodipodi:namedview
   pagecolor="#ffffff"
   bordercolor="#666666"
   borderopacity="1"
   objecttolerance="10"
   gridtolerance="10"
   guidetolerance="10"
   inkscape:pageopacity="0"
   inkscape:pageshadow="2"
   inkscape:window-width="1366"
   inkscape:window-height="705"
   id="namedview395"
   showgrid="false"
   inkscape:zoom="0.70710678"
   inkscape:cx="-3.2721962"
   inkscape:cy="218.45102"
   inkscape:window-x="-8"
   inkscape:window-y="-8"
   inkscape:window-maximized="1"
   inkscape:current-layer="g4" />
<g
   id="BACKGROUND"
   transform="matrix(1.2842946,0,0,1.2842946,-71.073017,30.123504)"
   style="display:inline">
	
</g>
<g
   id="g5107"
   transform="translate(-0.00537719,-0.78298568)"
   style="display:inline"><g
     transform="matrix(1.2842946,0,0,1.2842946,28.710016,30.728831)"
     id="g4">
		<path
   sodipodi:nodetypes="ccccccccccccccssccsccccccccccccccsccccccccs"
   style="fill:#ecf3ff"
   inkscape:connector-curvature="0"
   id="path2"
   d="m 112.412,94.738 c 15.62,1.045 22.155,-9.612 29.494,-23.312 20.092,-37.502 64.838,-33.888 79.848,-10.795 10.632,16.357 33.559,12.992 52.104,6.59 18.254,-6.3 49.354,-12.354 74.126,-4.824 21.636,6.577 30.514,30.302 50.235,28.842 20.84629,-1.542698 36.68454,7.633776 46.58752,19.61145 l 0.0225,333.01102 -328.2061,0.004 C 95.3279,438.44357 63.082,404.763 55.693,384.253 45.498,355.947 55.158,323.19 43.64,295.389 34.257,272.74 11.312,254.313 12.756,229.871 13.654,214.656 24.05,201.928 31.199,188.431 41.829,168.373 27.76,89.073 112.412,94.738 Z M 248.59,57.996 c -4.105,0 -7.434,2.55 -7.434,5.695 0,3.145 3.337,5.424 7.434,5.695 13.35,0.882 13.35,-4.515 13.35,-7.66 -10e-4,-5.025 -9.245,-3.73 -13.35,-3.73 z M 384.166,82.28 c 3.57,2.948 8.119,4.713 12.761,4.951 1.239,0.063 2.589,-0.015 3.545,-0.8 1.184,-0.972 1.311,-2.957 0.261,-4.069 -0.658,-0.7 -1.62,-1.014 -2.516,-1.377 -1.525,-0.62 -3.021,-1.508 -3.886,-2.899 -0.251,-0.404 -0.467,-0.867 -0.883,-1.101 -2.584,-1.453 -13.979,1.416 -9.282,5.295 z m 22.74,5.032 c 1.175,0.406 2.463,0.032 3.646,-0.352 0.759,-0.246 1.689,-0.789 1.485,-1.553 -0.098,-0.368 -0.444,-0.613 -0.783,-0.793 -1.557,-0.833 -3.575,-1.447 -5.14,-0.381 -1.564,1.063 -0.384,2.673 0.792,3.079 z M 20.819,297.082 c -2.18,1.92 -0.214,7.539 0.43,11.248 0.193,1.111 0.45,2.262 1.153,3.15 0.96,1.215 2.555,1.713 4.051,2.146 2.653,0.771 5.869,1.422 7.895,-0.44 1.503,-1.384 1.716,-3.638 1.713,-5.67 -0.002,-1.854 -0.103,-3.711 -0.3,-5.557 -0.095,-0.886 -0.222,-1.801 -0.697,-2.559 -0.606,-0.967 -1.687,-1.531 -2.745,-1.979 -3.794,-1.607 -9.32,-2.259 -11.5,-0.339 z" />
	</g><g
     transform="translate(99.783032,100.60533)"
     id="OBJECTS">
	<g
   id="g391">
		<ellipse
   style="fill:#c8dbfb"
   id="ellipse7"
   ry="3.6110001"
   rx="38.646999"
   cy="413.681"
   cx="180.80499" />
		<ellipse
   style="fill:#c8dbfb"
   id="ellipse9"
   ry="3.6110001"
   rx="38.646999"
   cy="413.681"
   cx="379.35501" />
		<g
   id="g25">
			<g
   id="g19">
				<g
   id="g17">
					<path
   style="fill:none;stroke:#c8dbfb;stroke-linecap:round;stroke-linejoin:round"
   inkscape:connector-curvature="0"
   id="path11"
   d="m 461.012,159.461 c -0.108,-0.673 -0.229,-1.329 -0.356,-1.968" />
					<path
   style="fill:none;stroke:#c8dbfb;stroke-linecap:round;stroke-linejoin:round;stroke-dasharray:3.9929, 3.9929"
   inkscape:connector-curvature="0"
   id="path13"
   d="m 459.702,153.612 c -6.895,-23.479 -28.878,-21.214 -48.747,-21.173 -21.388,0.044 -352.509,0.728 -352.509,0.728 -33.275,0.069 -30.055,48.107 -4,48.053 14.98,-0.031 20.676,28.098 -5.225,28.151 -15.539,0.032 -16.036,19.729 -5.589,23.675" />
					<path
   style="fill:none;stroke:#c8dbfb;stroke-linecap:round;stroke-linejoin:round"
   inkscape:connector-curvature="0"
   id="path15"
   d="m 45.552,233.566 c 0.635,0.109 1.301,0.166 1.998,0.164" />
				</g>
			</g>
			<circle
   style="fill:#5193f4"
   id="circle21"
   r="4.789"
   cy="233.627"
   cx="46.914001" />
			<circle
   style="fill:#5193f4"
   id="circle23"
   r="4.789"
   cy="160.755"
   cx="461.01401" />
		</g>
		<g
   id="g181">
			<g
   id="g31">
				<path
   style="fill:#5193f4"
   inkscape:connector-curvature="0"
   id="path27"
   d="m 100.45,197.84 c -0.69,3.89 -1.7,7.69 -2.93,11.44 -2.65,8.09 -6.31,15.88 -10.01,23.57 -1.93,4.02 -9.76,13.32 -13.96,15.09 0.49,-10.49 0.53,-22.74 -0.69,-33.33 -1.17,-10.2 2.5,-17.93 -1.5,-27.39 -0.51,-1.21 -1.04,-2.42 -1.57,-3.63 -1.99,-4.5 -3.96,-9.02 -4.58,-13.87 -0.8,-6.149 1.11,-13.16 6.43,-16.36 3.83,-2.3 8.82,-2.18 12.91,-0.37 4.09,1.81 7.37,5.12 9.86,8.83 6.97,10.36 8.23,23.74 6.04,36.02 z" />
				<path
   style="fill:none;stroke:#0b43a4;stroke-linecap:round;stroke-linejoin:round;stroke-miterlimit:10"
   inkscape:connector-curvature="0"
   id="path29"
   d="m 81.85,163.866 c 7.831,11.056 8.51,23.938 9.188,37.471 0.679,13.532 -2.573,27.238 -9.259,39.022"
   stroke-miterlimit="10" />
			</g>
			<g
   id="g37">
				<path
   style="fill:#00ad9f"
   inkscape:connector-curvature="0"
   id="path33"
   d="m 81.523,367.846 c -5.488,-4.851 -11.041,-9.773 -15.096,-15.873 -3.532,-5.312 -5.812,-11.344 -8.893,-16.929 -1.994,-3.614 -4.348,-7.096 -5.503,-11.06 -1.155,-3.963 -0.878,-8.655 1.938,-11.674 2.938,-3.148 7.989,-3.632 11.977,-2.01 3.988,1.623 7.037,4.977 9.365,8.598 3.092,4.811 5.157,10.275 6.019,15.929 0.78,5.122 0.581,10.356 1.376,15.476 0.741,4.771 2.345,9.353 4.366,13.723 1.833,3.964 6.477,11.029 7.662,15.094 -3.283,1.642 -10.872,-9.207 -13.211,-11.274 z" />
				<path
   style="fill:none;stroke:#00ad9f;stroke-linecap:round;stroke-linejoin:round;stroke-miterlimit:10"
   inkscape:connector-curvature="0"
   id="path35"
   d="m 62.334,317.55 c 5.218,2.284 7.293,8.509 8.382,14.099 1.239,6.363 0.964,13.254 3.882,19.045 5.496,10.906 12.65,23.32 17.967,27.029"
   stroke-miterlimit="10" />
			</g>
			<g
   id="g43">
				<path
   style="fill:#0056ec"
   inkscape:connector-curvature="0"
   id="path39"
   d="m 54.513,352.925 c -4.554,-1.798 -10.636,-2.537 -13.556,1.394 -2.445,3.291 -1.179,7.957 0.51,11.691 1.426,3.153 3.237,6.36 6.244,8.074 2.054,1.172 4.46,1.523 6.808,1.803 6.548,0.779 13.144,1.16 19.738,1.143 7.643,-0.021 16.901,3.1 23.225,7.865 -8.115,-15.084 -27.641,-25.916 -42.969,-31.97 z" />
				<path
   style="fill:none;stroke:#0b43a4;stroke-linecap:round;stroke-linejoin:round;stroke-miterlimit:10"
   inkscape:connector-curvature="0"
   id="path41"
   d="m 46.523,362.73 c 5.797,0.248 11.647,0.654 17.211,2.301 5.69,1.683 27.578,11.727 30.999,16.002"
   stroke-miterlimit="10" />
			</g>
			<g
   id="g49">
				<path
   style="fill:#52d2bc"
   inkscape:connector-curvature="0"
   id="path45"
   d="M 104.19,321.971 C 98.264,312.69 88.122,306.211 77.205,304.745 69.145,303.662 60.851,305.17 52.896,303.492 44.54,301.74 37,296.355 32.635,289.007 c -4.365,-7.348 -5.501,-16.535 -3.048,-24.723 1.869,-6.224 6.138,-12.117 12.319,-14.113 3.367,-1.083 7.052,-0.935 10.492,-0.106 3.175,0.765 6.128,2.092 8.846,3.823 6.223,3.939 11.247,10.005 15.027,16.439 3.43,5.852 11.895,14.963 17.65,20.889 3.377,3.462 5.83,5.83 5.83,5.83 3.951,4.906 2.103,19.073 4.439,24.925 z" />
				<path
   style="fill:none;stroke:#00ad9f;stroke-linecap:round;stroke-linejoin:round;stroke-miterlimit:10"
   inkscape:connector-curvature="0"
   id="path47"
   d="m 40.109,268.161 c 19.367,8.744 40.494,20.203 54.229,36.417"
   stroke-miterlimit="10" />
			</g>
			<g
   id="g59">
				<path
   style="opacity:0.2;fill:#5275a0"
   inkscape:connector-curvature="0"
   id="path51"
   d="m 96.194,302.398 c 0,0 -28.864,-23.396 -34.95,-48.512 6.223,3.939 11.247,10.004 15.027,16.439 3.43,5.852 11.895,14.963 17.65,20.889 0.68,3.145 1.434,6.83 2.273,11.184 z"
   enable-background="new    " />
				<path
   style="opacity:0.2;fill:#5275a0"
   inkscape:connector-curvature="0"
   id="path53"
   d="m 97.52,209.28 c -2.65,8.09 -6.31,15.88 -10.01,23.57 -1.93,4.02 -9.76,13.32 -13.96,15.09 0.49,-10.49 0.53,-22.74 -0.69,-33.33 -1.17,-10.2 2.5,-17.93 -1.5,-27.39 -0.51,-1.21 -1.04,-2.42 -1.57,-3.63 0.37,0.12 0.73,0.25 1.08,0.4 6.58,2.82 9.62,9.78 10.18,16.54 0.47,5.58 -0.54,11.17 -1.29,16.72 -0.35,2.56 -0.63,5.18 -0.08,7.69 0.01,0.03 0.02,0.05 0.02,0.08 0.69,2.99 5.06,2.82 5.62,-0.21 l 1.75,-9.29 c 0.52,-2.78 1.09,-5.69 3.37,-7.63 0.9,-0.77 2.06,-1.25 3.24,-1.21 1.88,0.07 3.06,1.17 3.84,2.6 z"
   enable-background="new    " />
				<path
   style="fill:#7ee8d4"
   inkscape:connector-curvature="0"
   id="path55"
   d="m 96.198,296.532 c -4.559,-23.81 -6.957,-27.478 -4.951,-33.445 2.555,-7.606 1.119,-15.253 3.53,-22.907 2.411,-7.653 4.052,-15.883 2.107,-23.667 -0.615,-2.461 -1.861,-5.145 -4.818,-5.247 -1.186,-0.041 -2.341,0.437 -3.244,1.207 -2.279,1.942 -2.854,4.851 -3.375,7.63 l -1.741,9.292 c -0.566,3.021 -4.932,3.199 -5.623,0.203 -0.006,-0.025 -0.012,-0.05 -0.017,-0.075 -0.559,-2.515 -0.271,-5.133 0.073,-7.687 0.749,-5.555 1.758,-11.143 1.296,-16.729 -0.559,-6.759 -3.601,-13.72 -10.185,-16.533 -2.334,-0.998 -4.968,-1.224 -7.427,-0.593 -6.872,1.764 -8.65,8.479 -7.643,14.214 0.709,4.035 2.603,7.746 4.315,11.468 4.18,9.092 1.114,17.43 1.692,27.42 1.598,27.57 36.011,55.449 36.011,55.449 z" />
				<path
   style="fill:none;stroke:#00ad9f;stroke-linecap:round;stroke-linejoin:round;stroke-miterlimit:10"
   inkscape:connector-curvature="0"
   id="path57"
   d="m 65.538,195.188 c 3.391,16.94 6.819,34.003 13.4,49.977 1.93,4.685 2.874,10.849 14.042,23.593"
   stroke-miterlimit="10" />
			</g>
			<g
   id="g65">
				<path
   style="fill:#5193f4"
   inkscape:connector-curvature="0"
   id="path61"
   d="m 197.78,199.53 c -3.51,-4.01 -6.75,-8.09 -10.16,-12.021 -2.21,-2.55 -4.49,-5.04 -6.97,-7.4 -1.23,-1.18 -2.5,-2.32 -3.84,-3.43 -7.92,-6.54 -16.76,-11.97 -26.21,-16.01 -5.7,-2.44 -11.72,-4.45 -16.56,-8.34 -4.84,-3.88 -8.32,-10.26 -6.71,-16.25 1.17,-4.32 4.84,-7.68 9.05,-9.22 4.2,-1.53 8.86,-1.41 13.23,-0.47 12.2,2.63 22.39,11.4 29.32,21.77 0.12,0.18 0.25,0.37 0.37,0.56 5.08,7.75 8.63,16.37 11.72,25.15 0.99,2.82 1.93,5.66 2.86,8.49 1.4,4.231 5.7,12.981 3.9,17.171 z" />
				<path
   style="fill:none;stroke:#0b43a4;stroke-linecap:round;stroke-linejoin:round;stroke-miterlimit:10"
   inkscape:connector-curvature="0"
   id="path63"
   d="m 141.973,136.573 c 13.309,2.538 22.73,11.351 32.602,20.632 9.872,9.281 17.031,21.412 20.384,34.54"
   stroke-miterlimit="10" />
			</g>
			<g
   id="g73">
				<path
   style="opacity:0.2;fill:#5275a0"
   inkscape:connector-curvature="0"
   id="path67"
   d="m 187.62,187.51 c -0.11,1.38 -0.07,2.76 0.19,4.16 -3.33,-0.76 -5.64,-5.93 -7.16,-11.56 -1.49,-5.47 -2.23,-11.39 -2.46,-14.12 -0.45,-5.76 -0.08,-11.6 1.11,-17.271 5.08,7.75 8.63,16.37 11.72,25.15 -1.06,3.15 -1.97,6.34 -2.72,9.56 -0.32,1.371 -0.57,2.721 -0.68,4.081 z"
   enable-background="new    " />
				<path
   style="fill:#52d2bc"
   inkscape:connector-curvature="0"
   id="path69"
   d="m 210.717,139.46 c -1.125,4.991 -4.142,9.303 -6.796,13.678 -1.402,2.305 -2.708,4.673 -3.93,7.073 -3.908,7.678 -6.892,15.834 -8.856,24.224 -0.648,2.75 -1.009,5.448 -0.489,8.241 -6.563,-1.498 -9.175,-20.146 -9.622,-25.688 -0.786,-9.982 0.914,-20.209 5.023,-29.354 1.794,-4.014 4.11,-7.954 7.678,-10.524 3.558,-2.57 8.602,-3.473 12.372,-1.232 2.272,1.349 3.728,3.589 4.439,6.138 0.691,2.379 0.722,5.033 0.181,7.444 z" />
				<path
   style="fill:none;stroke:#00ad9f;stroke-linecap:round;stroke-linejoin:round;stroke-miterlimit:10"
   inkscape:connector-curvature="0"
   id="path71"
   d="m 188.13,187.171 c -4.08,-10.247 -1.601,-31.936 4.944,-45.568 1.972,-4.107 4.779,-7.958 8.714,-10.253"
   stroke-miterlimit="10" />
			</g>
			<g
   id="g81">
				<path
   style="opacity:0.2;fill:#5275a0"
   inkscape:connector-curvature="0"
   id="path75"
   d="m 210.717,139.46 c -1.125,4.991 -4.142,9.303 -6.796,13.678 -1.402,2.305 -2.708,4.673 -3.93,7.073 -1.794,-3.016 -3.016,-6.351 -3.355,-9.834 -0.552,-5.809 1.667,-12.032 6.393,-15.452 2.209,-1.593 4.8,-2.496 7.508,-2.91 0.69,2.38 0.721,5.034 0.18,7.445 z"
   enable-background="new    " />
				<path
   style="fill:#00ad9f"
   inkscape:connector-curvature="0"
   id="path77"
   d="m 248.565,182.863 c -0.308,1.912 -0.881,3.749 -1.699,5.521 -2.91,6.297 -9.016,11.703 -18.17,16.1 0,0 -0.509,-9.961 -0.616,-12.627 -0.446,-11.417 -12.839,-17.735 -20.677,-26.061 -3.993,-4.248 -7.02,-9.611 -7.583,-15.42 -0.552,-5.809 1.667,-12.032 6.393,-15.452 3.961,-2.856 9.144,-3.483 14.018,-3.111 7.859,0.626 15.792,3.918 20.677,10.057 0.212,0.234 0.393,0.478 0.573,0.722 2.995,4.089 4.535,9.069 5.661,14.029 1.955,8.592 2.836,17.534 1.423,26.242 z" />
				<path
   style="fill:none;stroke:#00ad9f;stroke-linecap:round;stroke-linejoin:round;stroke-miterlimit:10"
   inkscape:connector-curvature="0"
   id="path79"
   d="m 209.581,141.05 c 8.577,4.436 17.169,9.799 22.165,18.063 6.969,11.528 5.45,26.528 0.075,38.88"
   stroke-miterlimit="10" />
			</g>
			<g
   id="g87">
				<path
   style="fill:#52d2bc"
   inkscape:connector-curvature="0"
   id="path83"
   d="m 392.063,256.516 c 5.468,-9 2.676,-20.578 4.577,-30.935 1.464,-7.962 5.895,-15.343 12.231,-20.379 3.979,-3.161 9.566,-5.418 14.061,-3.049 0.975,0.514 2.133,1.235 3.069,0.659 0.56,-0.345 0.784,-1.038 0.916,-1.682 1.14,-5.594 -1.55,-11.704 0.647,-16.973 1.184,-2.837 3.631,-4.956 6.224,-6.608 4.997,-3.186 10.846,-5.021 16.768,-5.261 1.572,-0.064 3.208,-0.003 4.615,0.702 2.541,1.274 3.703,4.438 3.362,7.261 -0.342,2.823 -1.897,5.348 -3.625,7.606 -5.741,7.507 -14.154,13.985 -15.264,23.371 -0.141,1.185 -0.141,2.44 0.403,3.501 0.526,1.025 1.506,1.757 2.058,2.77 1.769,3.25 -1.647,6.936 -4.984,8.533 -3.047,1.459 -6.354,2.374 -9.717,2.689 -2.315,0.217 -4.934,0.272 -6.508,1.983 -2.907,3.158 0.433,8.207 -0.178,12.455 -0.381,2.652 -2.305,4.793 -4.234,6.65 -3.586,3.448 -7.512,6.544 -11.699,9.227 -3.396,2.176 -6.99,4.098 -10.001,6.782 -3.011,2.684 -5.444,6.313 -5.642,10.343" />
				<path
   style="fill:none;stroke:#00ad9f;stroke-linecap:round;stroke-linejoin:round;stroke-miterlimit:10"
   inkscape:connector-curvature="0"
   id="path85"
   d="m 399.268,247.761 c 0.895,-4.362 2.924,-8.396 4.933,-12.37 3.14,-6.21 6.341,-12.511 11.083,-17.604 3.601,-3.867 7.991,-6.927 11.652,-10.736 2.609,-2.715 4.834,-5.801 6.582,-9.138 0.946,-1.809 1.767,-3.71 3.045,-5.302 1.518,-1.891 3.593,-3.238 5.397,-4.856 2.439,-2.184 4.404,-4.895 5.724,-7.892"
   stroke-miterlimit="10" />
			</g>
			<g
   id="g93">
				<path
   style="fill:#5193f4"
   inkscape:connector-curvature="0"
   id="path89"
   d="m 470.57,262.76 c -1.23,4.74 -3.062,9.432 -6.2,13.19 -2.17,2.59 -4.87,4.64 -7.82,6.31 -1.52,0.87 -3.12,1.631 -4.729,2.312 -6.261,2.63 -12.99,4.12 -19.771,4.38 -9.88,0.37 -20.04,-1.811 -29.52,1.01 -4.352,1.29 -8.36,3.641 -11.65,6.75 -2.06,1.93 -3.83,4.16 -5.229,6.61 l 1.29,-8.2 c 2.39,-8.82 4.828,-17.8 9.71,-25.53 3.148,-5.01 7.238,-9.37 11.59,-13.38 6.95,-6.42 14.66,-12.07 23.17,-16.2 6.88,-3.34 14.52,-5.689 22.12,-4.76 7.59,0.92 15.05,5.72 17.42,12.99 1.519,4.668 0.86,9.768 -0.381,14.518 z" />
				<path
   style="fill:none;stroke:#0b43a4;stroke-linecap:round;stroke-linejoin:round;stroke-miterlimit:10"
   inkscape:connector-curvature="0"
   id="path91"
   d="m 393.4,288.877 c 7.261,-10.742 18.135,-18.996 30.434,-23.102 7.664,-2.56 15.768,-3.531 23.53,-5.771 7.763,-2.238 15.507,-6.043 20.058,-12.719"
   stroke-miterlimit="10" />
			</g>
			<g
   id="g99">
				<path
   style="fill:#52d2bc"
   inkscape:connector-curvature="0"
   id="path95"
   d="m 398.184,367.648 c 0.434,-11.027 6.135,-21.211 13.059,-29.807 5.773,-7.169 12.743,-13.729 21.35,-16.996 2.696,-1.022 5.656,-1.71 8.457,-1.021 2.8,0.688 5.339,3.085 5.391,5.969 0.043,2.432 -1.591,4.557 -3.311,6.277 -5.658,5.666 -12.972,9.303 -19.825,13.445 -11.779,7.118 -22.977,16.622 -27.65,29.569" />
				<path
   style="fill:none;stroke:#00ad9f;stroke-linecap:round;stroke-linejoin:round;stroke-miterlimit:10"
   inkscape:connector-curvature="0"
   id="path97"
   d="m 402.543,357.998 c 7.199,-16.059 25.836,-30.417 38.128,-32.211"
   stroke-miterlimit="10" />
			</g>
			<g
   id="g105">
				<path
   style="fill:#00ad9f"
   inkscape:connector-curvature="0"
   id="path101"
   d="m 393.683,376.418 c -0.098,-1.85 5.931,-6.681 7.288,-7.913 7.525,-6.825 16.474,-11.846 25.921,-14.812 3.824,-1.201 7.887,-2.073 11.712,-1.149 3.825,0.923 7.336,4.058 7.711,8.185 0.364,4.002 -2.32,7.916 -5.746,9.854 -3.427,1.938 -7.434,2.229 -11.254,2.007 -5.903,-0.344 -11.699,-1.812 -17.625,-1.766 -5.926,0.044 -14.245,0.643 -18.007,5.594 z" />
				<path
   style="fill:none;stroke:#00ad9f;stroke-linecap:round;stroke-linejoin:round;stroke-miterlimit:10"
   inkscape:connector-curvature="0"
   id="path103"
   d="m 399.822,370.807 c 12.111,-6.563 30.425,-10.834 43.72,-9.225"
   stroke-miterlimit="10" />
			</g>
			<g
   id="g127">
				<path
   style="opacity:0.2;fill:#5275a0"
   inkscape:connector-curvature="0"
   id="path107"
   d="m 248.565,182.863 c -0.308,1.912 -0.881,3.749 -1.699,5.521 -4.248,-9.005 -7.986,-20.771 -8.889,-35.215 -0.244,-3.908 0.85,-7.933 2.931,-11.3 0.212,0.234 0.393,0.478 0.573,0.722 2.995,4.089 4.535,9.069 5.661,14.029 1.955,8.593 2.836,17.535 1.423,26.243 z"
   enable-background="new    " />
				<path
   style="fill:#7ee8d4"
   inkscape:connector-curvature="0"
   id="path109"
   d="m 290.457,182.358 c 9.044,-3.212 18.436,-5.774 26.658,-10.726 2.485,-1.497 4.883,-3.238 6.646,-5.542 1.765,-2.304 2.85,-5.243 2.455,-8.118 -0.398,-2.923 -2.271,-5.724 -1.641,-8.606 0.415,-1.9 1.841,-3.385 2.931,-4.996 2.593,-3.832 3.364,-8.841 2.046,-13.276 -1.418,-4.765 -4.988,-8.577 -7.021,-13.114 -1.66,-3.705 -2.254,-7.881 -1.692,-11.902 -7.586,0.102 -14.511,4.246 -21.971,5.629 -5.706,1.058 -11.643,0.483 -17.299,1.783 -10.313,2.37 -18.744,11.447 -20.35,21.908 -4.783,-0.822 -9.932,0.903 -13.256,4.441 -3.535,3.763 -5.524,9.107 -5.203,14.26 2.331,37.428 23.76,56.954 23.76,56.954 0,0 20.489,-27.47 23.937,-28.695 z" />
				<g
   id="g125">
					<path
   style="fill:none;stroke:#00ad9f;stroke-linecap:round;stroke-linejoin:round;stroke-miterlimit:10"
   inkscape:connector-curvature="0"
   id="path111"
   d="m 270.229,182.096 c -0.939,-9.232 2.285,-18.358 5.992,-26.869 3.612,-8.292 7.769,-16.421 13.348,-23.541 5.578,-7.12 12.668,-13.224 21.037,-16.656"
   stroke-miterlimit="10" />
					<path
   style="fill:none;stroke:#00ad9f;stroke-linecap:round;stroke-linejoin:round;stroke-miterlimit:10"
   inkscape:connector-curvature="0"
   id="path113"
   d="m 278.277,120.694 c -0.95,8.231 -0.285,18.148 1.857,26.152"
   stroke-miterlimit="10" />
					<path
   style="fill:none;stroke:#00ad9f;stroke-linecap:round;stroke-linejoin:round;stroke-miterlimit:10"
   inkscape:connector-curvature="0"
   id="path115"
   d="m 281.676,143.899 c 9.401,-6.03 23.863,-9.692 35.015,-9.053"
   stroke-miterlimit="10" />
					<path
   style="fill:none;stroke:#00ad9f;stroke-linecap:round;stroke-linejoin:round;stroke-miterlimit:10"
   inkscape:connector-curvature="0"
   id="path117"
   d="m 258.688,145.438 c 11.316,4.772 11.782,21.414 12.086,26.142"
   stroke-miterlimit="10" />
					<path
   style="fill:none;stroke:#00ad9f;stroke-linecap:round;stroke-linejoin:round;stroke-miterlimit:10"
   inkscape:connector-curvature="0"
   id="path119"
   d="m 273.857,160.998 c 8.66,-6.211 21.174,-8.078 30.384,-5.762"
   stroke-miterlimit="10" />
					<path
   style="fill:none;stroke:#00ad9f;stroke-linecap:round;stroke-linejoin:round;stroke-miterlimit:10"
   inkscape:connector-curvature="0"
   id="path121"
   d="m 297.482,116.421 c -2.604,3.212 -3.252,7.033 -2.99,9.676"
   stroke-miterlimit="10" />
					<path
   style="fill:none;stroke:#00ad9f;stroke-linecap:round;stroke-linejoin:round;stroke-miterlimit:10"
   inkscape:connector-curvature="0"
   id="path123"
   d="m 296.958,123.751 c 3.992,-2.045 9.329,-2.514 15.038,-1.082"
   stroke-miterlimit="10" />
				</g>
			</g>
			<g
   id="g149">
				<path
   style="fill:#4a49ca"
   inkscape:connector-curvature="0"
   id="path129"
   d="m 74.297,141.852 c 1.064,-0.056 8.318,-5.43 11.112,-7.24 0.786,-0.51 1.584,-1.044 2.133,-1.803 0.549,-0.759 0.805,-1.8 0.406,-2.646 -0.496,-1.051 -1.319,-2.101 -3.396,-2.097 -3.614,0.008 -4.869,1.195 -6.626,3.013 -5.811,6.009 -3.629,10.773 -3.629,10.773 z" />
				<path
   style="fill:#4a49ca"
   inkscape:connector-curvature="0"
   id="path131"
   d="m 106.821,163.524 c 3.158,1.419 6.533,2.834 9.968,2.395 1.333,-0.17 2.787,-0.776 3.23,-2.043 0.379,-1.083 -0.144,-2.325 -1.002,-3.086 -0.859,-0.761 -1.992,-1.129 -3.107,-1.401 -4.205,-1.026 -10.107,-0.458 -14.271,0.724 0,-0.001 3.297,2.564 5.182,3.411 z" />
				<path
   style="fill:#4a49ca"
   inkscape:connector-curvature="0"
   id="path133"
   d="m 127.624,116.871 c -1.409,-0.89 -2.965,-2.08 -2.964,-3.746 0.001,-1.671 1.744,-2.944 3.415,-2.953 1.671,-0.008 3.222,0.903 4.478,2.005 5.315,4.666 4.652,9.986 4.652,9.986 0,0 -8.012,-4.302 -9.581,-5.292 z" />
				<path
   style="fill:#4a49ca"
   inkscape:connector-curvature="0"
   id="path135"
   d="m 131.814,102.638 c -1.236,-0.531 -2.512,-1.172 -3.237,-2.306 -0.353,-0.552 -0.553,-1.25 -0.335,-1.868 0.364,-1.034 1.012,-1.962 3.617,-1.49 8.25,1.497 10.047,7.146 10.047,7.146 0,0 -7.901,-0.54 -10.092,-1.482 z" />
				<path
   style="fill:#4a49ca"
   inkscape:connector-curvature="0"
   id="path137"
   d="m 155.985,115.135 c 3.31,-0.285 6.727,-1.934 8.813,-4.519 0.788,-0.976 1.508,-2.052 1.771,-3.278 0.262,-1.226 -0.017,-2.632 -0.967,-3.451 -1.159,-0.998 -2.997,-0.838 -4.272,0.004 -1.276,0.842 -2.096,2.216 -2.76,3.593 -0.885,1.837 -2.585,7.651 -2.585,7.651 z" />
				<path
   style="fill:none;stroke:#0b43a4;stroke-linecap:round;stroke-linejoin:round;stroke-miterlimit:10"
   inkscape:connector-curvature="0"
   id="path139"
   d="m 96.897,235.798 c -8.013,-7.063 -16.025,-14.126 -24.038,-21.19 -4.271,-3.765 -8.63,-7.639 -11.335,-12.648 -5.814,-10.768 -2.462,-24.759 5.39,-34.145 7.852,-9.386 19.353,-14.929 30.906,-18.962 11.554,-4.034 23.58,-6.864 34.593,-12.198 6.907,-3.346 13.852,-8.33 15.746,-15.768 1.14,-4.474 0.182,-9.436 -2.541,-13.164 -2.723,-3.728 -7.159,-6.149 -11.767,-6.424"
   stroke-miterlimit="10" />
				<path
   style="fill:none;stroke:#0b43a4;stroke-linecap:round;stroke-linejoin:round;stroke-miterlimit:10"
   inkscape:connector-curvature="0"
   id="path141"
   d="m 161.583,107.454 c -2.189,6.723 -10.717,10.813 -14.609,16.637"
   stroke-miterlimit="10" />
				<path
   style="fill:none;stroke:#0b43a4;stroke-linecap:round;stroke-linejoin:round;stroke-miterlimit:10"
   inkscape:connector-curvature="0"
   id="path143"
   d="m 130.964,115.187 c 1.679,1.773 3.69,3.239 5.156,5.192 3.096,4.128 3.354,10.836 -1.226,14.997"
   stroke-miterlimit="10" />
				<path
   style="fill:none;stroke:#0b43a4;stroke-linecap:round;stroke-linejoin:round;stroke-miterlimit:10"
   inkscape:connector-curvature="0"
   id="path145"
   d="m 87.816,152.824 c 7.069,5.447 16.362,9.078 25.279,9.424"
   stroke-miterlimit="10" />
				<path
   style="fill:none;stroke:#0b43a4;stroke-linecap:round;stroke-linejoin:round;stroke-miterlimit:10"
   inkscape:connector-curvature="0"
   id="path147"
   d="m 71.633,162.746 c -3.255,-9.598 0.292,-21.096 8.388,-27.193"
   stroke-miterlimit="10" />
			</g>
			<g
   id="g171">
				<path
   style="fill:#4a49ca"
   inkscape:connector-curvature="0"
   id="path151"
   d="m 330.047,122.191 c -0.384,-1.188 -0.364,-2.647 0.514,-3.535 0.696,-0.704 1.864,-1.02 2.771,-0.621 7.029,3.091 6.27,14.058 6.27,14.058 0,0 -6.669,-0.963 -9.555,-9.902 z" />
				<path
   style="fill:#4a49ca"
   inkscape:connector-curvature="0"
   id="path153"
   d="m 329.876,142.733 c -4.547,8.218 11.615,7.591 17.443,2.751 0,0 -13.528,-9.825 -17.443,-2.751 z" />
				<path
   style="fill:#4a49ca"
   inkscape:connector-curvature="0"
   id="path155"
   d="m 350.311,122.814 c -1.097,-1.504 -1.485,-3.744 -0.291,-5.172 0.89,-1.063 2.438,-1.391 3.801,-1.129 1.361,0.262 3.4,1.522 4.271,2.603 5.318,6.617 2.818,13.092 2.818,13.092 0,0 -8.802,-6.931 -10.599,-9.394 z" />
				<path
   style="fill:#4a49ca"
   inkscape:connector-curvature="0"
   id="path157"
   d="m 414.495,143.163 c -0.394,-1.28 -0.301,-2.842 0.694,-3.738 0.628,-0.566 1.521,-0.771 2.363,-0.707 0.844,0.063 1.648,0.37 2.418,0.722 1.648,0.754 2.932,2.07 3.723,3.7 1.999,4.118 0.642,9.214 0.642,9.214 0,0 -8.861,-6.001 -9.84,-9.191 z" />
				<path
   style="fill:#4a49ca"
   inkscape:connector-curvature="0"
   id="path159"
   d="m 394.305,158.244 c -2.855,-2.51 -7.232,-3.252 -10.716,-1.725 -0.886,0.388 -1.727,0.937 -2.293,1.72 -1.276,1.766 -0.829,4.347 0.496,6.077 1.324,1.73 3.333,2.782 5.317,3.683 3.597,1.632 9.179,1.959 13.007,2.936 0,0 -0.014,-7.601 -5.811,-12.691 z" />
				<path
   style="fill:none;stroke:#0b43a4;stroke-linecap:round;stroke-linejoin:round;stroke-miterlimit:10"
   inkscape:connector-curvature="0"
   id="path161"
   d="m 335.084,123.954 c 2.378,7.783 9.107,13.656 16.6,16.833 7.492,3.177 15.745,4.015 23.866,4.541 8.121,0.525 16.339,0.787 24.192,2.919 7.654,2.078 15.275,6.405 18.562,13.624 3.997,8.786 0.457,19.293 -5.154,27.146 -5.613,7.853 -13.173,14.183 -18.603,22.164 -2.494,3.665 -4.576,7.955 -4.072,12.359 0.672,5.871 5.618,10.194 10.216,13.908"
   stroke-miterlimit="10" />
				<path
   style="fill:none;stroke:#0b43a4;stroke-linecap:round;stroke-linejoin:round;stroke-miterlimit:10"
   inkscape:connector-curvature="0"
   id="path163"
   d="m 353.804,121.099 c 5.382,5.954 9.685,15.265 10.73,23.222"
   stroke-miterlimit="10" />
				<path
   style="fill:none;stroke:#0b43a4;stroke-linecap:round;stroke-linejoin:round;stroke-miterlimit:10"
   inkscape:connector-curvature="0"
   id="path165"
   d="m 335.707,144.095 c 3.077,0.817 6.195,1.639 9.379,1.647 3.184,0.008 6.872,-1.755 9.161,-3.968"
   stroke-miterlimit="10" />
				<path
   style="fill:none;stroke:#0b43a4;stroke-linecap:round;stroke-linejoin:round;stroke-miterlimit:10"
   inkscape:connector-curvature="0"
   id="path167"
   d="m 419.761,143.646 c 2.884,2.784 4.636,6.707 4.785,10.712 0.15,4.005 -2.072,8.859 -4.738,11.851"
   stroke-miterlimit="10" />
				<path
   style="fill:none;stroke:#0b43a4;stroke-linecap:round;stroke-linejoin:round;stroke-miterlimit:10"
   inkscape:connector-curvature="0"
   id="path169"
   d="m 389.596,161.823 c 5.758,5.301 10.771,9.587 17.174,14.09 2.922,2.055 8.724,4.689 11.299,4.011"
   stroke-miterlimit="10" />
			</g>
			<g
   id="g179">
				<path
   style="opacity:0.2;fill:#5275a0"
   inkscape:connector-curvature="0"
   id="path173"
   d="m 456.55,282.26 c -1.52,0.87 -3.12,1.631 -4.729,2.312 -6.261,2.63 -12.99,4.12 -19.771,4.38 -9.88,0.37 -20.04,-1.811 -29.52,1.01 -4.352,1.29 -8.36,3.641 -11.65,6.75 -0.33,0.16 -0.66,0.34 -0.99,0.53 -0.79,-6.69 15.892,-15.41 20.96,-17.681 9.15,-4.101 19.352,-5.92 29.352,-5.119 4.38,0.35 8.87,1.209 12.479,3.699 1.549,1.069 2.909,2.5 3.869,4.119 z"
   enable-background="new    " />
				<path
   style="fill:#52d2bc"
   inkscape:connector-curvature="0"
   id="path175"
   d="m 440.199,278.438 c 4.378,0.35 8.867,1.209 12.482,3.7 3.616,2.491 6.159,6.94 5.315,11.25 -0.981,5.021 -6.172,8.285 -11.249,8.902 -5.077,0.617 -10.15,-0.779 -15.16,-1.812 -11.086,-2.282 -22.531,-2.806 -33.779,-1.545 -2.805,0.315 -5.467,0.871 -7.924,2.308 -0.789,-6.694 15.898,-15.41 20.969,-17.683 9.149,-4.097 19.347,-5.915 29.346,-5.12 z" />
				<path
   style="fill:none;stroke:#00ad9f;stroke-linecap:round;stroke-linejoin:round;stroke-miterlimit:10"
   inkscape:connector-curvature="0"
   id="path177"
   d="m 394.229,297.021 c 8.283,-7.28 29.548,-12.224 44.586,-10.631 4.529,0.479 9.1,1.832 12.582,4.771"
   stroke-miterlimit="10" />
			</g>
		</g>
		
			<path
   style="fill:none;stroke:#0b43a4;stroke-linecap:round;stroke-linejoin:round;stroke-miterlimit:10;stroke-dasharray:4"
   inkscape:connector-curvature="0"
   id="path183"
   d="m 378.754,215.223 80.886,-0.167 c 9.491,-0.02 17.202,7.659 17.223,17.151 v 0 c 0.02,9.492 -7.659,17.203 -17.151,17.222 l -55.328,0.114"
   stroke-miterlimit="10" />
		
			<path
   style="fill:none;stroke:#0b43a4;stroke-linecap:round;stroke-linejoin:round;stroke-miterlimit:10;stroke-dasharray:4"
   inkscape:connector-curvature="0"
   id="path185"
   d="m 134.01,274.613 -56.567,0.115 c -5.357,0.013 -9.692,4.363 -9.681,9.722 v 0 c 0.011,5.358 4.363,9.692 9.721,9.681 l 16.493,-0.033"
   stroke-miterlimit="10" />
		<g
   id="g193">
			
				<path
   style="fill:none;stroke:#c8dbfb;stroke-linecap:round;stroke-linejoin:round;stroke-miterlimit:10;stroke-dasharray:4"
   inkscape:connector-curvature="0"
   id="path187"
   d="m 43.723,318.42 c -19.378,0.04 -19.783,28.945 4.875,28.895 24.658,-0.051 348.127,-0.719 363.382,-0.75 15.252,-0.031 16.862,-23.828 -1.994,-23.791 -37.525,0.078 -38.771,-17.818 -17.938,-17.861"
   stroke-miterlimit="10" />
			<circle
   style="fill:#5193f4"
   id="circle189"
   r="4.789"
   cy="318.42001"
   cx="43.536999" />
			<circle
   style="fill:#0b43a4"
   id="circle191"
   r="4.789"
   cy="305.845"
   cx="396.62" />
		</g>
		<g
   id="g377">
			<path
   style="opacity:0.2;fill:#5275a0"
   inkscape:connector-curvature="0"
   id="path195"
   d="m 406.558,388.611 -300.889,0.621 c -4.015,0.01 -7.275,-3.238 -7.284,-7.254 L 97.973,182.645 c -0.008,-4.014 3.239,-7.275 7.254,-7.284 l 300.889,-0.621 c 4.014,-0.008 7.274,3.239 7.283,7.254 l 0.411,199.333 c 0.009,4.016 -3.239,7.277 -7.252,7.284 z"
   enable-background="new    " />
			<g
   id="g241">
				<path
   style="fill:#ffffff"
   inkscape:connector-curvature="0"
   id="path197"
   d="m 400.665,384.804 -300.889,0.621 c -4.015,0.009 -7.275,-3.239 -7.284,-7.254 L 92.08,178.838 c -0.008,-4.014 3.239,-7.275 7.254,-7.284 l 300.889,-0.621 c 4.016,-0.008 7.275,3.239 7.284,7.253 l 0.411,199.333 c 0.009,4.015 -3.238,7.276 -7.253,7.285 z" />
				<path
   style="fill:#0056ec"
   inkscape:connector-curvature="0"
   id="path199"
   d="m 399.734,170.936 -299.603,0.618 c -4.37,0.009 -7.905,3.56 -7.896,7.929 l 0.014,6.88 315.427,-0.651 -0.015,-6.88 c -0.007,-4.37 -3.557,-7.905 -7.927,-7.896 z" />
				<path
   style="fill:#c8dbfb"
   inkscape:connector-curvature="0"
   id="path201"
   d="m 100.493,385.425 45.268,-0.094 -0.411,-199.078 -53.18,0.109 0.394,191.175 c 0.01,4.365 3.56,7.897 7.929,7.888 z" />
				<g
   id="g205">
					<path
   style="fill:#0056ec"
   inkscape:connector-curvature="0"
   id="path203"
   d="m 400.313,172.935 c 2.898,0 5.263,2.359 5.269,5.258 l 0.411,199.333 c 0.006,2.906 -2.354,5.273 -5.258,5.279 l -300.9,0.621 c -2.899,0 -5.263,-2.357 -5.269,-5.258 L 94.155,178.835 c -0.003,-1.407 0.542,-2.731 1.535,-3.729 0.993,-0.997 2.315,-1.548 3.723,-1.551 l 300.884,-0.621 0.016,0.001 m 0,-2 c -0.005,0 -0.011,0 -0.016,0 l -300.889,0.621 c -4.014,0.008 -7.262,3.27 -7.253,7.284 l 0.411,199.333 c 0.008,4.011 3.261,7.254 7.269,7.254 0.005,0 0.01,0 0.015,0 l 300.889,-0.62 c 4.015,-0.009 7.263,-3.27 7.254,-7.283 l -0.411,-199.333 c -0.01,-4.012 -3.262,-7.256 -7.269,-7.256 z" />
				</g>
				<path
   style="fill:#ffffff"
   inkscape:connector-curvature="0"
   id="path207"
   d="m 138.126,370.207 -34.886,0.072 c -1.539,0.003 -2.79,-1.242 -2.792,-2.781 l -10e-4,-0.346 c -0.003,-1.538 1.242,-2.789 2.781,-2.793 l 34.886,-0.071 c 1.539,-0.003 2.789,1.242 2.792,2.78 v 0.347 c 0.005,1.539 -1.24,2.789 -2.78,2.792 z" />
				<path
   style="fill:#ffffff"
   inkscape:connector-curvature="0"
   id="path209"
   d="m 133.932,235.149 -29.701,0.062 c -2.82,0.006 -5.111,-2.276 -5.117,-5.096 l -0.063,-29.701 c -0.006,-2.82 2.276,-5.111 5.096,-5.117 l 29.701,-0.062 c 2.82,-0.006 5.111,2.276 5.117,5.096 l 0.062,29.701 c 0.006,2.821 -2.276,5.111 -5.095,5.117 z" />
				<path
   style="fill:#c8dbfb"
   inkscape:connector-curvature="0"
   id="path211"
   d="m 261.082,324.12 -103.479,0.214 c -2.01,0.004 -3.644,-1.622 -3.647,-3.633 l -10e-4,-0.451 c -0.004,-2.01 1.622,-3.643 3.632,-3.646 l 103.478,-0.213 c 2.012,-0.006 3.645,1.621 3.647,3.631 l 0.001,0.451 c 0.005,2.009 -1.621,3.643 -3.631,3.647 z" />
				<path
   style="fill:#c8dbfb"
   inkscape:connector-curvature="0"
   id="path213"
   d="m 255.102,206.222 -81.774,0.168 c -2.01,0.004 -3.643,-1.622 -3.647,-3.632 l -0.001,-0.451 c -0.004,-2.01 1.622,-3.643 3.632,-3.647 l 81.775,-0.168 c 2.01,-0.004 3.643,1.622 3.646,3.632 l 0.002,0.451 c 0.003,2.009 -1.624,3.642 -3.633,3.647 z" />
				<path
   style="fill:#c8dbfb"
   inkscape:connector-curvature="0"
   id="path215"
   d="m 384.37,288.923 -109.029,0.226 c -2.01,0.004 -3.643,-1.623 -3.647,-3.633 v -0.451 c -0.004,-2.011 1.621,-3.644 3.633,-3.647 l 109.027,-0.226 c 2.012,-0.004 3.645,1.623 3.647,3.634 l 0.001,0.45 c 0.005,2.009 -1.622,3.642 -3.632,3.647 z" />
				<path
   style="fill:#c8dbfb"
   inkscape:connector-curvature="0"
   id="path217"
   d="m 261.114,340.104 -103.479,0.213 c -2.01,0.006 -3.643,-1.621 -3.646,-3.631 l -0.001,-0.451 c -0.004,-2.012 1.622,-3.645 3.632,-3.647 l 103.479,-0.214 c 2.01,-0.004 3.644,1.622 3.646,3.633 l 10e-4,0.451 c 0.005,2.008 -1.621,3.642 -3.632,3.646 z" />
				<path
   style="fill:#c8dbfb"
   inkscape:connector-curvature="0"
   id="path219"
   d="M 261.146,356.086 157.669,356.3 c -2.01,0.004 -3.644,-1.622 -3.647,-3.632 l -0.001,-0.451 c -0.004,-2.011 1.622,-3.644 3.632,-3.646 l 103.479,-0.215 c 2.011,-0.004 3.644,1.623 3.647,3.634 l 10e-4,0.45 c 0.004,2.009 -1.622,3.642 -3.634,3.646 z" />
				<path
   style="fill:#c8dbfb"
   inkscape:connector-curvature="0"
   id="path221"
   d="m 382.158,366.511 -104.285,0.216 c -3.32,0.006 -6.018,-2.68 -6.023,-6 l -0.093,-44.789 c -0.007,-3.319 2.679,-6.018 5.999,-6.023 L 382.041,309.7 c 3.32,-0.008 6.018,2.679 6.023,5.999 l 0.093,44.789 c 0.007,3.319 -2.678,6.016 -5.999,6.023 z" />
				<circle
   style="fill:#c8dbfb"
   id="circle223"
   r="2.549"
   cy="178.806"
   cx="106.989" />
				<circle
   style="fill:#c8dbfb"
   id="circle225"
   r="2.549"
   cy="178.784"
   cx="117.78" />
				<circle
   style="fill:#c8dbfb"
   id="circle227"
   r="2.549"
   cy="178.761"
   cx="128.57201" />
				<circle
   style="fill:#c8dbfb"
   id="circle229"
   r="7.3709998"
   cy="202.556"
   cx="158.34599" />
				<path
   style="fill:#ffffff"
   inkscape:connector-curvature="0"
   id="path231"
   d="m 136.002,241.378 -32.647,0.067 c -0.759,0.001 -1.375,-0.612 -1.376,-1.371 v -0.17 c -0.001,-0.758 0.612,-1.375 1.371,-1.376 l 32.648,-0.067 c 0.759,-0.002 1.375,0.612 1.376,1.371 v 0.17 c 0.001,0.759 -0.613,1.375 -1.372,1.376 z" />
				<path
   style="fill:#ffffff"
   inkscape:connector-curvature="0"
   id="path233"
   d="m 136.015,247.612 -32.648,0.066 c -0.759,0.001 -1.375,-0.612 -1.376,-1.371 v -0.17 c -0.002,-0.759 0.612,-1.375 1.371,-1.376 l 32.647,-0.067 c 0.759,-10e-4 1.375,0.612 1.376,1.371 v 0.17 c 0.002,0.759 -0.612,1.375 -1.37,1.377 z" />
				<path
   style="fill:#c8dbfb"
   inkscape:connector-curvature="0"
   id="path235"
   d="m 173.397,260.793 -9.233,0.094 0.068,38.68 -7.967,0.016 c -2.811,0.006 -5.095,-2.268 -5.101,-5.079 l -0.147,-71.526 c -0.006,-2.841 2.292,-5.149 5.133,-5.154 l 17.146,-0.044 z" />
				<g
   id="g239">
					<path
   style="fill:#c8dbfb"
   inkscape:connector-curvature="0"
   id="path237"
   d="m 233.288,217.662 v 1 c 2.757,0 5.005,2.243 5.011,5.001 l 0.144,69.737 c 0.006,2.764 -2.238,5.016 -5.001,5.021 l -76.267,0.157 c -2.757,0 -5.005,-2.243 -5.011,-5.001 L 152.02,223.84 c -0.006,-2.764 2.238,-5.016 5.001,-5.022 l 76.257,-0.157 0.01,-0.999 m -0.001,0 c -0.004,0 -0.009,0 -0.013,0 l -76.256,0.157 c -3.32,0.007 -6.006,2.704 -5.999,6.024 l 0.144,69.737 c 0.007,3.316 2.697,5.999 6.011,5.999 0.004,0 0.009,0 0.013,0 l 76.256,-0.157 c 3.32,-0.007 6.006,-2.703 5.999,-6.023 l -0.144,-69.736 c -0.006,-3.318 -2.696,-6.001 -6.011,-6.001 z" />
				</g>
			</g>
			<path
   style="fill:#c8dbfb"
   inkscape:connector-curvature="0"
   id="path243"
   d="M 360.628,275.061 258.907,252.073 c -3.238,-0.731 -5.271,-3.95 -4.538,-7.189 l 11.441,-50.628 c 0.731,-3.238 3.95,-5.271 7.188,-4.539 l 101.721,22.989 c 3.238,0.732 5.271,3.951 4.538,7.189 l -11.441,50.629 c -0.731,3.237 -3.95,5.269 -7.188,4.537 z" />
			<g
   id="g253">
				<polygon
   style="fill:#0056ec"
   id="polygon245"
   points="149.53,412.79 146.047,394.657 167.171,394.613 163.763,412.761 " />
				<path
   style="fill:#c8dbfb"
   inkscape:connector-curvature="0"
   id="path247"
   d="m 149.987,394.648 c 0.003,1.479 -0.279,3.964 0.706,4 0.985,0.036 0.578,-2.357 1.7,-2.293 0.717,0.041 -0.334,7.879 2.376,8.066 1.863,0.129 1.522,-3.844 1.713,-6.331 0.13,-1.683 2.285,-1.353 2.302,-0.239 0.02,1.245 -0.06,2.079 0,3.496 0.101,2.366 3.739,1.738 3.609,-1.424 -0.129,-3.163 -0.008,-5.302 -0.008,-5.302 z" />
				<g
   id="g251">
					<path
   style="fill:#0c2340"
   inkscape:connector-curvature="0"
   id="path249"
   d="m 146.58,405.601 c -0.291,10e-4 -0.571,-0.025 -0.841,-0.087 -1.048,-0.23 -1.784,-0.781 -2.188,-1.639 -1.451,-3.076 2.37,-8.841 2.519,-9.098 l 0.199,1.037 c -0.035,0.062 -3.356,5.016 -2.051,7.779 0.31,0.657 0.862,1.065 1.688,1.248 0.228,0.05 0.467,0.074 0.714,0.073 5.126,-0.009 13.889,-9.563 13.985,-9.674 0.358,-0.431 1.028,-0.025 0.79,0.338 -0.401,0.462 -9.305,10.011 -14.815,10.023 z" />
				</g>
			</g>
			<g
   id="g269">
				<path
   style="opacity:0.2;fill:#5275a0"
   inkscape:connector-curvature="0"
   id="path255"
   d="m 296.146,157.624 c -20.229,-0.774 -48.078,14.187 -38.198,50.765 -0.216,3.093 1.638,5.299 3.606,4.695 1.968,-0.604 0.233,-6.465 0.233,-6.465 3.368,-27.196 9.668,-31.901 20.362,-31.803 l 25.091,-0.052 c 6.2,0.914 17.473,5.25 19.164,27.021 l 6.246,1.154 c 0.489,-15.726 -3.318,-44.046 -36.504,-45.315 z"
   enable-background="new    " />
				<path
   style="fill:#ef832b"
   inkscape:connector-curvature="0"
   id="path257"
   d="m 296.146,154.438 c -20.229,-0.774 -48.078,14.187 -38.198,50.765 l 3.841,-1.77 c 3.368,-27.196 9.668,-31.901 20.363,-31.803 l 25.09,-0.052 c 6.2,0.914 17.773,6.417 19.465,28.188 l 5.945,-0.013 c 0.487,-15.726 -3.32,-44.046 -36.506,-45.315 z" />
				<path
   style="fill:#ffb9a3"
   inkscape:connector-curvature="0"
   id="path259"
   d="m 292.009,155.033 -3.004,6.604 c 0,0 0.358,3.719 4.009,3.643 3.649,-0.077 4.137,-1.763 4.137,-1.763 l 0.477,-7.582 z" />
				<path
   style="fill:#ffb9a3"
   inkscape:connector-curvature="0"
   id="path261"
   d="m 307.453,149.526 c -3.426,6.055 -4.942,7.939 -9.421,8.849 -5.8,1.179 -12.304,-2.732 -9.28,-12.373 2.465,-7.861 6.196,-6.65 9.852,-6.353 3.654,0.297 12.549,3.335 8.849,9.877 z" />
				<path
   style="fill:#0c2340"
   inkscape:connector-curvature="0"
   id="path263"
   d="m 293.839,144.749 c -0.91,-0.474 -2.081,-0.071 -2.787,0.673 -0.727,0.765 -1.077,1.911 -0.769,2.919 -1.402,0.021 -2.633,1.395 -2.499,2.791 -0.958,-2.235 -0.439,-4.559 -0.629,-6.846 -0.19,-2.287 0.061,-4.773 1.543,-6.524 0.606,-0.718 1.391,-1.271 2.222,-1.712 3.154,-1.676 7.117,-1.732 10.318,-0.146 0.662,0.329 2.324,1.375 4.643,0.813 4.418,-1.068 7.004,1.919 4.35,4.719 0.853,0.308 1.786,0.688 2.174,1.508 0.099,0.209 0.149,0.472 0.019,0.663 -0.093,0.133 -0.252,0.199 -0.405,0.251 -0.743,0.251 -1.551,0.315 -2.324,0.185 0.298,0.253 1.938,0.352 2.432,1.306 1.317,2.539 -3.902,1.257 -4.697,1.002 0.908,0.171 3.292,2.073 2.529,3.378 -0.15,0.258 -3.369,2.133 -6.752,-1.796 -0.787,-0.914 -1.77,-1.758 -2.934,-2.068 -0.914,-0.244 -1.871,0.094 -2.758,0.427 -0.646,0.243 -2.296,1.247 -2.769,0.649 -0.521,-0.656 0.149,-1.668 -0.907,-2.192 z" />
				<path
   style="fill:#ffb9a3"
   inkscape:connector-curvature="0"
   id="path265"
   d="m 327.348,199.771 c -0.896,3.086 -1.804,3.393 -0.717,3.884 1.088,0.492 1.967,-1.238 1.967,-1.238 l 5.019,0.998 c 0,0 -1.132,-3.259 -1.923,-3.653 -0.792,-0.394 -4.346,0.009 -4.346,0.009 z" />
				<path
   style="fill:#ffb9a3"
   inkscape:connector-curvature="0"
   id="path267"
   d="m 261.789,203.433 c 0.654,1.628 0.836,1.639 1.749,3.596 1.746,3.74 -2.343,9.655 -4.882,3.197 -0.695,-1.77 -0.708,-5.023 -0.708,-5.023 z" />
			</g>
			<g
   id="g281">
				<g
   id="g279">
					<path
   style="fill:#0c2340"
   inkscape:connector-curvature="0"
   id="path271"
   d="m 300.984,136.43 c 3.43,0.188 7.649,-2.236 10.337,0.875 0.248,0.288 0.745,-0.094 0.526,-0.407 -2.57,-3.694 -7.33,-0.944 -10.863,-1.038 -0.369,-0.01 -0.365,0.55 0,0.57 z" />
					<path
   style="fill:#0c2340"
   inkscape:connector-curvature="0"
   id="path273"
   d="m 302.361,134.538 c -2.245,0.39 -4.373,-0.721 -6.596,-0.381 -2.067,0.315 -3.841,1.217 -5.412,2.585 -0.373,0.324 0.114,0.951 0.524,0.681 2.046,-1.346 3.938,-2.434 6.481,-2.294 1.84,0.101 3.369,0.679 5.199,0.133 0.474,-0.141 0.273,-0.805 -0.196,-0.724 z" />
					<path
   style="fill:#0c2340"
   inkscape:connector-curvature="0"
   id="path275"
   d="m 289.021,137.738 c -1.607,0.999 -2.681,2.411 -2.797,4.373 -0.086,1.446 -0.223,4.653 1.248,5.473 0.346,0.192 0.702,-0.262 0.422,-0.546 -0.898,-0.912 -0.891,-3.182 -0.943,-4.32 -0.088,-1.906 0.832,-3.469 2.308,-4.576 0.235,-0.176 0.026,-0.568 -0.238,-0.404 z" />
					<path
   style="fill:#0c2340"
   inkscape:connector-curvature="0"
   id="path277"
   d="m 314.393,143.369 c -0.848,-1.471 -3.02,-2.773 -4.688,-1.839 -0.264,0.146 -0.14,0.548 0.148,0.553 0.689,0.013 1.319,-0.068 2,0.103 0.854,0.214 1.584,0.734 2.089,1.447 0.191,0.271 0.622,0.033 0.451,-0.264 z" />
				</g>
			</g>
			<g
   id="g315">
				<path
   style="fill:#0b43a4"
   inkscape:connector-curvature="0"
   id="path283"
   d="m 203.116,295.917 c 10.605,3.896 19.816,16.063 17.703,24.908 -2.387,9.989 -9.279,14.298 -9.279,14.298 l -2.171,-4.011 c 0,0 5.509,-8.614 5.031,-12.683 -0.766,-6.515 -8.993,-10.865 -8.993,-10.865 z" />
				<path
   style="fill:#0c2340"
   inkscape:connector-curvature="0"
   id="path285"
   d="m 177.005,408.64 c 0,0 -6.514,2.632 -8.142,4.115 l 12.902,-0.024 -0.009,-4.101 z" />
				<path
   style="fill:#0c2340"
   inkscape:connector-curvature="0"
   id="path287"
   d="m 205.514,408.389 c 0,0 1.849,2.145 2.189,4.29 l -8.803,0.019 c 0.151,-1.485 0.784,-2.906 1.641,-4.298 z" />
				<path
   style="fill:#047f76"
   inkscape:connector-curvature="0"
   id="path289"
   d="m 206.05,408.58 -6.01,0.01 c 0.12,-7.08 -1.34,-31.21 -2.75,-49.25 -0.83,-10.58 -1.65,-19.08 -2.13,-20.8 l 3.22,-0.71 12.15,-2.7 c 2.08,9.5 -2.72,53.12 -4.48,73.45 z" />
				<path
   style="fill:#009790"
   inkscape:connector-curvature="0"
   id="path291"
   d="m 183.961,338.159 c -4.688,7.385 -5.9,60.743 -7.862,70.633 l 5.7,0.323 c 0,0 6.546,-33.643 20.489,-71.46 z" />
				<path
   style="opacity:0.2;fill:#5275a0"
   inkscape:connector-curvature="0"
   id="path293"
   d="m 204.69,337.65 c -2.75,7.47 -5.22,14.778 -7.4,21.688 -0.83,-10.58 -1.65,-19.08 -2.13,-20.8 l 3.22,-0.71 z"
   enable-background="new    " />
				<path
   style="fill:#009790"
   inkscape:connector-curvature="0"
   id="path295"
   d="m 183.961,338.159 c -4.688,7.385 -5.9,60.743 -7.862,70.633 l 5.7,0.323 c 0,0 6.546,-33.643 20.489,-71.46 z" />
				<path
   style="fill:#ffb9a3"
   inkscape:connector-curvature="0"
   id="path297"
   d="m 187.543,278.591 c 0,0 -3.649,13.905 5.466,13.888 l -0.541,3.554 6.922,0.757 -1.496,-4.951 c 0,0 1.369,-8.743 1.46,-10.32 0.173,-2.953 -8.088,-8.147 -11.811,-2.928 z" />
				<g
   id="g303">
					<rect
   style="fill:#0c2340"
   id="rect299"
   height="11.351"
   width="2.6860001"
   y="263.005"
   x="162.328" />
					<path
   style="fill:#0056ec"
   inkscape:connector-curvature="0"
   id="path301"
   d="m 171.369,262.99 -15.422,0.029 c -1.079,0.004 -1.956,-0.869 -1.958,-1.948 l -0.001,-0.404 c -0.002,-1.079 0.871,-1.956 1.95,-1.958 l 15.421,-0.03 c 1.079,-0.002 1.956,0.871 1.958,1.95 l 0.001,0.403 c 0.003,1.079 -0.87,1.956 -1.949,1.958 z" />
				</g>
				<path
   style="fill:#ffb9a3"
   inkscape:connector-curvature="0"
   id="path305"
   d="m 161.591,277.316 c -0.073,-2.573 -2.196,-1.899 -1.026,-6.1 0.724,-2.598 6.086,0.416 5.418,2.219 -0.667,1.801 -1.437,4.647 -1.437,4.647 z" />
				<path
   style="fill:#0056ec"
   inkscape:connector-curvature="0"
   id="path307"
   d="m 193.075,295.213 c -13.63,0.902 -14.527,5.496 -20.627,4.777 -9.028,-1.063 -7.448,-17.829 -6.333,-23.842 l -5.392,0.01 c 0,0 -9.72,38.193 20.98,31.132 -1.179,6.69 6.455,17.615 -0.947,30.876 11.654,3.165 22.528,3.941 31.839,-0.063 -1.63,-2.195 3.342,-24.388 -6.394,-40.361 -1.9,-3.119 -12.129,-2.596 -13.126,-2.529 z" />
				<path
   style="fill:#0056ec"
   inkscape:connector-curvature="0"
   id="path309"
   d="m 193.075,295.213 c -13.63,0.902 -14.527,5.496 -20.627,4.777 -9.028,-1.063 -7.448,-17.829 -6.333,-23.842 l -5.392,0.01 c 0,0 -9.72,38.193 20.98,31.132 -1.179,6.69 6.455,17.615 -0.947,30.876 11.654,3.165 22.528,3.941 31.839,-0.063 -1.63,-2.195 3.342,-24.388 -6.394,-40.361 -1.9,-3.119 -12.129,-2.596 -13.126,-2.529 z" />
				<path
   style="fill:#ef832b"
   inkscape:connector-curvature="0"
   id="path311"
   d="m 191.197,281.256 c 0.889,0.227 1.923,0.397 2.397,1.152 0.308,0.49 0.287,1.1 0.256,1.671 0.164,-0.599 0.825,-1.028 1.464,-0.955 0.64,0.074 1.176,0.644 1.188,1.261 0.005,0.29 -0.091,0.572 -0.198,0.844 -0.266,0.676 -0.606,1.323 -1.014,1.931 1.115,0.409 2.046,3.666 2.604,4.679 1.873,-0.469 6.038,-2.078 6.401,-8.71 0.169,-3.089 -0.772,-6.787 -4.123,-8.845 -2.367,-1.452 -6.294,-1.473 -9.004,-0.78 -2.197,0.562 -5.702,2.755 -4.068,5.32 0.826,1.293 2.629,2.057 4.097,2.432 z" />
				<path
   style="fill:#ef832b"
   inkscape:connector-curvature="0"
   id="path313"
   d="m 202.872,277.033 c 1.269,-0.422 2.878,-0.198 3.64,0.861 0.594,0.826 0.541,1.911 0.733,2.898 0.092,0.477 0.261,0.962 0.631,1.29 0.441,0.394 1.082,0.485 1.683,0.519 1.467,0.078 2.953,-0.106 4.399,0.139 1.447,0.246 2.926,1.063 3.338,2.415 0.228,0.747 0.104,1.569 0.376,2.303 0.41,1.101 1.583,1.728 2.603,2.366 2.172,1.359 4.017,3.197 5.354,5.328 0.846,1.35 1.498,2.849 1.601,4.42 0.102,1.57 1.235,3.646 0.934,5.193 -0.326,1.67 -1.967,3.926 -5.209,4.971 -5.604,1.803 -7.378,2.584 -12.747,-0.606 -0.647,-0.385 -1.912,-1.694 -2.498,-2.162 -0.459,-0.366 -0.75,-0.897 -0.911,-1.45 -0.448,-1.541 0.07,-3.201 0.874,-4.604 0.805,-1.4 1.889,-2.641 2.708,-4.034 0.492,-0.839 0.894,-1.769 0.848,-2.729 -0.017,-0.358 -0.108,-0.734 -0.369,-0.992 -0.226,-0.224 -0.55,-0.329 -0.869,-0.392 -1.179,-0.23 -2.475,0.014 -3.544,-0.517 -1.039,-0.516 -1.608,-1.771 -1.293,-2.85 0.21,-0.722 0.757,-1.329 0.913,-2.063 0.224,-1.055 -0.438,-2.141 -1.357,-2.759 -0.919,-0.618 -2.053,-0.856 -3.16,-1.04 -0.545,-0.09 -1.117,-0.179 -1.56,-0.497 -0.547,-0.392 -0.798,-1.079 -0.791,-1.733 0.023,-2.074 1.712,-3.62 3.673,-4.275 z" />
			</g>
			<g
   id="g321">
				<g
   id="g319">
					<path
   style="fill:#ef832b"
   inkscape:connector-curvature="0"
   id="path317"
   d="m 201.867,282.622 c 6.743,1.46 -1.768,7.849 1.796,10.907 1.016,0.871 2.201,0.597 3.392,0.762 4.578,0.633 2.075,3.742 1.763,6.179 -0.047,0.367 0.563,0.443 0.645,0.087 0.388,-1.684 1.935,-3.738 1.137,-5.531 -0.702,-1.576 -2.442,-1.393 -3.868,-1.436 -1.787,-0.054 -3.759,0.003 -3.09,-3.555 0.149,-0.791 0.782,-1.594 1.089,-2.338 0.354,-0.858 0.591,-1.71 0.398,-2.648 -0.328,-1.587 -1.652,-2.52 -3.167,-2.773 -0.223,-0.038 -0.324,0.296 -0.095,0.346 z" />
				</g>
			</g>
			<g
   id="g327">
				<g
   id="g325">
					<path
   style="fill:#ef832b"
   inkscape:connector-curvature="0"
   id="path323"
   d="m 187.972,274.369 c 5.2,-2.641 10.383,-2.113 14.773,1.759 0.298,0.263 0.701,-0.139 0.437,-0.437 -3.853,-4.336 -10.705,-5.104 -15.352,-1.565 -0.142,0.106 -0.024,0.327 0.142,0.243 z" />
				</g>
			</g>
			<g
   id="g351">
				<polygon
   style="fill:#ffb9a3"
   id="polygon329"
   points="360.38,295.212 365.888,297.464 366.477,292.247 362.634,290.682 " />
				<path
   style="fill:#ffb9a3"
   inkscape:connector-curvature="0"
   id="path331"
   d="m 365.959,275.93 c -12.492,5.438 -7.374,18.616 0.23,17.068 3.699,-0.753 5.573,-12.67 5.573,-12.67 z" />
				<path
   style="fill:#4a49ca"
   inkscape:connector-curvature="0"
   id="path333"
   d="m 370.108,274.055 c -0.411,-0.765 -0.801,-1.578 -1.478,-2.123 -0.677,-0.543 -1.749,-0.716 -2.385,-0.125 -0.84,0.781 -0.35,2.244 0.503,3.015 -0.732,0.089 -1.603,-0.417 -2.144,0.086 -0.408,0.382 -0.267,1.058 -0.031,1.565 0.551,1.194 1.451,2.227 2.56,2.935 -0.634,0.36 -1.368,1.056 -0.987,1.678 0.104,0.172 0.281,0.291 0.386,0.464 0.241,0.404 0.008,0.917 -0.235,1.319 -0.395,0.649 -0.818,1.282 -1.273,1.892 0.43,-0.589 1.477,-0.347 1.791,0.312 0.313,0.657 0.041,1.47 -0.445,2.012 -0.271,0.302 -0.613,0.553 -1.008,0.644 -0.345,0.08 -1.856,4.761 -0.677,5.678 1.46,1.133 6.425,0.148 7.143,-1.131 0.718,0.778 1.77,1.369 2.81,1.162 1.039,-0.207 1.832,-1.488 1.271,-2.388 1.123,0.414 2.488,0.05 3.256,-0.87 0.767,-0.92 0.879,-2.33 0.269,-3.359 0.612,-0.186 0.735,-1.014 0.579,-1.633 -0.315,-1.256 -1.339,-2.307 -2.585,-2.656 0.634,0.011 1.136,-0.626 1.165,-1.258 0.03,-0.633 -0.299,-1.229 -0.697,-1.72 -1.174,-1.446 -2.562,-1.833 -4.293,-2.052 -1.755,-0.225 -2.72,-2.008 -3.495,-3.447 z" />
				<path
   style="fill:#0c2340"
   inkscape:connector-curvature="0"
   id="path335"
   d="m 358.402,407.771 c 0,0 -7.31,3.511 -8.29,4.604 0,0 14.381,0.647 15.507,-0.032 1.125,-0.679 -2.303,-4.581 -2.303,-4.581 z" />
				<path
   style="fill:#0c2340"
   inkscape:connector-curvature="0"
   id="path337"
   d="m 385.593,403.805 c 0,0 -6.425,4.946 -7.157,6.221 0,0 15.163,-2.251 15.163,-3.241 0,-0.99 -3.2,-4.006 -3.2,-4.006 z" />
				<path
   style="fill:#d8742a"
   inkscape:connector-curvature="0"
   id="path339"
   d="m 365.47,340.011 c -0.271,1.486 -10.276,40.991 18.354,64.675 l 8.294,-1.9 c 0,0 -9.652,-9.055 -14.201,-25.346 -4.302,-15.406 -0.886,-16.918 1.694,-25.403 2.854,-9.394 0.73,-16.211 0.73,-16.211 z" />
				<path
   style="fill:#ef832b"
   inkscape:connector-curvature="0"
   id="path341"
   d="m 351.785,339.891 c -4.539,10.848 -12.332,47.815 4.652,68.632 l 8.48,-0.019 c 0,0 -6.681,-7.322 -7.428,-24.311 -0.746,-16.987 3.572,-24.445 6.619,-30.051 3.046,-5.605 5.864,-15.133 5.864,-15.133 z" />
				<path
   style="fill:#0b43a4"
   inkscape:connector-curvature="0"
   id="path343"
   d="m 345.8,272.641 c -2.253,7.943 -2.994,22.62 8.292,28.532 l 7.555,-1.841 c 0,0 -13.617,-7.141 -10.7,-25.186 z" />
				<path
   style="fill:#0056ec"
   inkscape:connector-curvature="0"
   id="path345"
   d="m 324.99,268.573 5.863,-0.724 c 0,0 -0.705,24.622 27.73,26.695 21.707,1.583 23.413,42.318 23.413,42.318 -6.999,4.712 -18.745,6.139 -33.795,5.06 0,0 0.963,-29.062 -1.429,-37.017 0.003,0.002 -23.623,-7.43 -21.782,-36.332 z" />
				<path
   style="fill:#ffb9a3"
   inkscape:connector-curvature="0"
   id="path347"
   d="m 317.82,264.104 c -0.992,1.15 3.15,2.609 7.17,4.471 l 5.146,-0.635 c 0,0 0.062,-1.028 -0.004,-2.101 -0.064,-1.071 -0.602,-1.683 -1.212,-0.763 -0.609,0.919 -3.212,1.23 -4.438,0.392 -1.226,-0.84 -5.669,-2.514 -6.662,-1.364 z" />
				<path
   style="fill:#ffb9a3"
   inkscape:connector-curvature="0"
   id="path349"
   d="m 345.8,272.641 c -1.885,-1.854 -1.385,-1.742 -1.385,-1.742 l 5.751,1.301 c 0,0 1.265,-2.807 2.336,-2.885 1.071,-0.08 -0.808,1.934 -0.377,2.68 0.431,0.745 -1.18,2.154 -1.18,2.154 z" />
			</g>
			<g
   id="g357">
				<g
   id="g355">
					<path
   style="fill:#4a49ca"
   inkscape:connector-curvature="0"
   id="path353"
   d="m 373.337,276.768 c 1.178,0.301 2.384,0.42 3.359,1.226 0.968,0.798 1.405,2.166 0.707,3.28 -0.327,0.521 0.45,0.93 0.803,0.47 0.896,-1.169 0.653,-2.772 -0.247,-3.876 -1.037,-1.273 -2.966,-1.801 -4.551,-1.63 -0.283,0.03 -0.387,0.448 -0.071,0.53 z" />
				</g>
			</g>
			<g
   id="g363">
				<g
   id="g361">
					<path
   style="fill:#4a49ca"
   inkscape:connector-curvature="0"
   id="path359"
   d="m 378.537,287.436 c 0.779,0.459 1.435,1.203 1.104,2.166 -0.308,0.893 -1.215,1.424 -1.941,1.936 -0.352,0.246 -0.049,0.785 0.339,0.58 1.08,-0.57 2.223,-1.373 2.391,-2.687 0.147,-1.146 -0.622,-2.021 -1.575,-2.534 -0.356,-0.193 -0.666,0.333 -0.318,0.539 z" />
				</g>
			</g>
			<g
   id="g369">
				<g
   id="g367">
					<path
   style="fill:#4a49ca"
   inkscape:connector-curvature="0"
   id="path365"
   d="m 365.404,293.396 c 2.649,1.646 6.396,1.379 8.588,-0.938 0.271,-0.285 -0.096,-0.826 -0.439,-0.57 -2.396,1.774 -5.115,2.351 -7.932,1.137 -0.248,-0.107 -0.458,0.221 -0.217,0.371 z" />
				</g>
			</g>
			<g
   id="g375">
				<g
   id="g373">
					<path
   style="fill:#4a49ca"
   inkscape:connector-curvature="0"
   id="path371"
   d="m 378.884,278.507 c 1.521,1.446 -0.003,3.429 -0.979,4.669 -0.216,0.274 0.125,0.643 0.393,0.393 0.869,-0.813 1.737,-1.704 1.855,-2.953 0.089,-0.938 -0.298,-1.831 -1.134,-2.286 -0.109,-0.06 -0.232,0.085 -0.135,0.177 z" />
				</g>
			</g>
		</g>
		<g
   id="g387">
			<polygon
   style="fill:#0b43a4"
   id="polygon379"
   points="209.727,95.822 207.381,90.094 230.011,81.501 " />
			<polygon
   style="fill:#5193f4"
   id="polygon381"
   points="210.867,92.292 230.011,81.501 216.685,95.036 " />
			<polygon
   style="fill:#5193f4"
   id="polygon383"
   points="202.202,87.761 230.011,81.501 207.381,90.094 " />
			<polygon
   style="fill:#0056ec"
   id="polygon385"
   points="210.867,92.292 209.727,95.822 213.181,93.383 " />
		</g>
		
			<path
   style="fill:none;stroke:#c8dbfb;stroke-linecap:round;stroke-linejoin:round;stroke-miterlimit:10;stroke-dasharray:4"
   inkscape:connector-curvature="0"
   id="path389"
   d="m 207.068,95.056 c -5.907,-0.999 -13.927,4.975 -10.478,11.199 1.174,2.119 7.232,1.199 6.781,-1.143 -0.215,-1.121 -1.588,-1.598 -2.723,-1.468 -6.604,0.757 -6.866,6.292 -6.574,7.701 1.512,7.279 12.668,4.817 16.419,3.79"
   stroke-miterlimit="10" />
	</g>
</g></g>
</svg>