<?xml version="1.0" encoding="UTF-8" standalone="no"?>
<svg
   xmlns:dc="http://purl.org/dc/elements/1.1/"
   xmlns:cc="http://creativecommons.org/ns#"
   xmlns:rdf="http://www.w3.org/1999/02/22-rdf-syntax-ns#"
   xmlns:svg="http://www.w3.org/2000/svg"
   xmlns="http://www.w3.org/2000/svg"
   xmlns:xlink="http://www.w3.org/1999/xlink"
   xmlns:sodipodi="http://sodipodi.sourceforge.net/DTD/sodipodi-0.dtd"
   xmlns:inkscape="http://www.inkscape.org/namespaces/inkscape"
   id="780c6f38-12e9-4526-8343-95ef18389740"
   data-name="Layer 1"
   width="971.44"
   height="662"
   viewBox="0 0 971.44 662"
   version="1.1"
   sodipodi:docname="undraw_designer.svg"
   inkscape:version="0.92.4 (5da689c313, 2019-01-14)">
  <metadata
     id="metadata93">
    <rdf:RDF>
      <cc:Work
         rdf:about="">
        <dc:format>image/svg+xml</dc:format>
        <dc:type
           rdf:resource="http://purl.org/dc/dcmitype/StillImage" />
        <dc:title>designer</dc:title>
      </cc:Work>
    </rdf:RDF>
  </metadata>
  <sodipodi:namedview
     pagecolor="#ffffff"
     bordercolor="#666666"
     borderopacity="1"
     objecttolerance="10"
     gridtolerance="10"
     guidetolerance="10"
     inkscape:pageopacity="0"
     inkscape:pageshadow="2"
     inkscape:window-width="1366"
     inkscape:window-height="705"
     id="namedview91"
     showgrid="false"
     inkscape:zoom="0.46247521"
     inkscape:cx="251.12713"
     inkscape:cy="335.04242"
     inkscape:window-x="-8"
     inkscape:window-y="-8"
     inkscape:window-maximized="1"
     inkscape:current-layer="780c6f38-12e9-4526-8343-95ef18389740" />
  <defs
     id="defs12">
    <linearGradient
       id="e33f255a-5f0d-48f0-b4f6-4629f34a01b8"
       x1="178.28"
       y1="633.98999"
       x2="299.73999"
       y2="633.98999"
       gradientUnits="userSpaceOnUse">
      <stop
         offset="0"
         stop-color="gray"
         stop-opacity="0.25"
         id="stop2" />
      <stop
         offset="0.54"
         stop-color="gray"
         stop-opacity="0.12"
         id="stop4" />
      <stop
         offset="1"
         stop-color="gray"
         stop-opacity="0.1"
         id="stop6" />
    </linearGradient>
    <linearGradient
       id="3dfe494e-3d34-4aa1-8861-9aac963443b7"
       x1="979.45001"
       y1="738.59003"
       x2="979.45001"
       y2="646.78003"
       xlink:href="#e33f255a-5f0d-48f0-b4f6-4629f34a01b8" />
    <linearGradient
       id="47059453-8610-4293-a227-11546ac98e4d"
       x1="600.65002"
       y1="650.10999"
       x2="600.65002"
       y2="119"
       xlink:href="#e33f255a-5f0d-48f0-b4f6-4629f34a01b8" />
    <linearGradient
       id="c720a710-d9a1-4694-b415-864894a8ed00"
       x1="485.72"
       y1="615.59998"
       x2="485.72"
       y2="377.70001"
       xlink:href="#e33f255a-5f0d-48f0-b4f6-4629f34a01b8" />
    <linearGradient
       inkscape:collect="always"
       xlink:href="#e33f255a-5f0d-48f0-b4f6-4629f34a01b8"
       id="linearGradient900"
       gradientUnits="userSpaceOnUse"
       x1="178.28"
       y1="633.98999"
       x2="299.73999"
       y2="633.98999" />
  </defs>
  <title
     id="title14">designer</title>
  <g
     id="g18"
     style="opacity:0.7"
     transform="matrix(0.84975335,0,0,0.84975335,72.977803,49.73089)">
    <path
       d="m 299,604.11 a 23.58,23.58 0 0 0 -9.35,-25 c -2.06,-1.39 -4.36,-2.45 -6.26,-4.05 -3.17,-2.67 -5,-6.6 -6.28,-10.53 -3.14,-9.42 -4.13,-20 -9.63,-28.51 -5,-7.75 -14.76,-10 -23.41,-10.79 -3.15,-0.28 -6.46,-0.43 -9.34,0.88 -4.82,2.18 -7.12,7.87 -7.34,13.16 -0.22,5.29 1.16,10.5 1.5,15.78 0.34,5.28 -0.6,11.09 -4.49,14.67 -3.89,3.58 -9.47,4 -14.64,4.72 a 96.94,96.94 0 0 0 -19.84,4.93 c -5.39,2 -11.4,5.51 -11.65,11.23 -0.21,4.68 3.57,8.42 6.41,12.15 5.31,7 8,16.16 6.16,24.73 -1.84,8.57 -8,16.21 -9.07,25.05 a 10.88,10.88 0 0 0 0.89,6.62 12.11,12.11 0 0 0 3.34,3.55 c 3.33,2.57 7,4.64 10.2,7.43 6.57,5.82 10.13,14.27 12.87,22.61 0.26,0.8 0.5,1.62 0.75,2.42 h -6.46 A 24,24 0 0 0 179.49,719 v 0 a 24,24 0 0 0 23.89,23.89 h 64.5 A 24,24 0 0 0 291.77,719 v 0 A 24,24 0 0 0 267.88,695.11 H 250.2 c 4.18,-5.6 8.55,-10.86 15,-13 6.45,-2.14 14.26,-0.89 19.32,-5.39 a 15.15,15.15 0 0 0 4.39,-8.69 25.87,25.87 0 0 0 -2.83,-17.18 c -2,-3.63 -5,-6.92 -5.65,-11 -0.55,-3.51 0.72,-7.07 2.44,-10.19 4.88,-8.87 13.51,-15.76 16.13,-25.55 z"
       transform="translate(-114.28,-119)"
       id="path16"
       inkscape:connector-curvature="0"
       style="fill:url(#linearGradient900)" />
  </g>
  <path
     d="m 183.07185,399.33642 c -2.54926,-0.22944 -5.22599,-0.3484 -7.55431,0.71379 -3.90037,1.76748 -5.76133,6.37315 -5.94827,10.64741 -0.18695,4.27426 0.94322,8.49753 1.21514,12.7463 0.27192,4.24876 -0.48436,8.97339 -3.63694,11.89654 -3.15259,2.92316 -7.64778,3.23756 -11.84556,3.8154 a 78.449229,78.449229 0 0 0 -16.05184,4.01083 c -4.35924,1.58904 -9.21983,4.45271 -9.42377,9.09236 -0.16995,3.7899 2.88916,6.79803 5.192,9.83165 4.29975,5.64236 6.44113,13.0777 4.97955,20.01169 -1.46158,6.93399 -6.44113,13.12019 -7.34187,20.27512 a 8.8034447,8.8034447 0 0 0 0.72229,5.35344 9.7976561,9.7976561 0 0 0 2.71071,2.87217 c 2.69372,2.08189 5.70185,3.75591 8.25111,6.01625 5.31946,4.70764 8.19162,11.54815 10.41798,18.29519 a 148.1545,148.1545 0 0 1 5.09852,20.28361 c 4.58017,-2.94864 10.50295,-2.90615 15.38903,-5.30246 10.40948,-5.09852 13.91046,-19.88422 24.89777,-23.56366 5.20049,-1.6995 11.53965,-0.72229 15.63546,-4.35923 a 12.253443,12.253443 0 0 0 3.55197,-7.02746 20.937923,20.937923 0 0 0 -2.29433,-13.90197 c -1.64003,-2.94014 -4.05332,-5.59987 -4.57167,-8.9309 -0.45037,-2.84668 0.58633,-5.71884 1.97142,-8.24261 3.95136,-7.18042 10.93633,-12.7463 13.06921,-20.6745 a 19.08546,19.08546 0 0 0 -7.5628,-20.23263 56.381135,56.381135 0 0 1 -5.09852,-3.28005 c -2.54927,-2.15837 -4.01934,-5.34494 -5.09853,-8.49753 -2.54926,-7.64778 -3.33953,-16.14531 -7.79223,-23.0708 -3.99384,-6.32217 -11.87956,-8.14914 -18.88152,-8.77795 z"
     id="path20"
     inkscape:connector-curvature="0"
     style="fill:#4db6ac;stroke-width:0.84975332" />
  <path
     d="m 182.99537,399.59984 c 0,0 9.6617,129.51091 -15.46551,151.74045"
     stroke-miterlimit="10"
     id="path22"
     inkscape:connector-curvature="0"
     style="opacity:0.6;fill:none;stroke:#535461;stroke-width:0.84975332;stroke-miterlimit:10" />
  <rect
     x="130.80353"
     y="536.84351"
     width="90.855629"
     height="38.663776"
     rx="12.916251"
     ry="12.916251"
     id="rect24"
     style="fill:#6c63ff;stroke-width:0.84975332" />
  <path
     d="m 129.8433,449.85425 c 0,0 24.71082,-2.88066 54.88557,15.47401"
     stroke-miterlimit="10"
     id="path26"
     inkscape:connector-curvature="0"
     style="opacity:0.6;fill:none;stroke:#535461;stroke-width:0.84975332;stroke-miterlimit:10" />
  <path
     d="m 184.24451,480.78527 c 0,0 13.73201,-22.7139 43.21845,-27.05614"
     stroke-miterlimit="10"
     id="path28"
     inkscape:connector-curvature="0"
     style="opacity:0.6;fill:none;stroke:#535461;stroke-width:0.84975332;stroke-miterlimit:10" />
  <path
     d="m 132.22261,502.53046 c 0,0 34.25355,-5.80381 49.99099,3.86638"
     stroke-miterlimit="10"
     id="path30"
     inkscape:connector-curvature="0"
     style="opacity:0.6;fill:none;stroke:#535461;stroke-width:0.84975332;stroke-miterlimit:10" />
  <path
     d="m 180.29315,519.64449 c 0,0 17.9298,-8.13214 38.10294,-1.52955"
     stroke-miterlimit="10"
     id="path32"
     inkscape:connector-curvature="0"
     style="opacity:0.6;fill:none;stroke:#535461;stroke-width:0.84975332;stroke-miterlimit:10" />
  <g
     id="g36"
     style="opacity:0.7"
     transform="matrix(0.84975335,0,0,0.84975335,72.977803,49.73089)">
    <path
       d="m 1009.77,663.18 v -16.4 h -82 v 75.82 a 16,16 0 0 0 16,16 h 50 a 16,16 0 0 0 16,-16 v -16.8 a 21.31,21.31 0 1 0 0,-42.62 z m 0,34.43 v -26.23 a 13.12,13.12 0 1 1 0,26.23 z"
       transform="translate(-114.28,-119)"
       id="path34"
       inkscape:connector-curvature="0"
       style="fill:url(#3dfe494e-3d34-4aa1-8861-9aac963443b7)" />
  </g>
  <path
     d="m 831.68858,514.32504 a 16.5362,16.5362 0 1 0 16.5362,16.5362 16.5362,16.5362 0 0 0 -16.5362,-16.5362 z m 0,26.70775 a 10.19704,10.19704 0 1 1 10.19704,-10.19704 10.19704,10.19704 0 0 1 -10.19704,10.20553 z"
     id="path38"
     inkscape:connector-curvature="0"
     style="fill:#6c63ff;stroke-width:0.84975332" />
  <path
     d="m 831.68858,514.32504 a 16.5362,16.5362 0 1 0 16.5362,16.5362 16.5362,16.5362 0 0 0 -16.5362,-16.5362 z m 0,26.70775 a 10.19704,10.19704 0 1 1 10.19704,-10.19704 10.19704,10.19704 0 0 1 -10.19704,10.20553 z"
     id="path40"
     inkscape:connector-curvature="0"
     style="opacity:0.1;stroke-width:0.84975332" />
  <path
     d="m 768.07604,501.61273 h 63.59554 v 62.94123 a 8.2850952,8.2850952 0 0 1 -8.28509,8.28509 h -47.00836 a 8.2850952,8.2850952 0 0 1 -8.28509,-8.28509 v -62.94123 z"
     id="path42"
     inkscape:connector-curvature="0"
     style="fill:#6c63ff;stroke-width:0.84975332" />
  <rect
     y="572.83905"
     width="825.48438"
     height="27.982378"
     id="rect44"
     x="72.977806"
     style="fill:#e0e0e0;stroke-width:0.84975332" />
  <g
     id="g48"
     style="opacity:0.7"
     transform="matrix(0.84975335,0,0,0.84975335,72.977803,49.73089)">
    <path
       d="m 753.25,514.26 c -10.41,-37.79 -69.44,-65.39 -113.85,-71.51 0,-0.28 0,-0.56 0,-0.84 v -32.34 h 0.14 v -1.27 a 110.94,110.94 0 0 0 67,-70.23 119.88,119.88 0 0 0 7.15,-15.42 c 4.74,-1.73 8.32,-9.54 8.32,-18.94 a 33.07,33.07 0 0 0 -1.34,-9.5 121.53,121.53 0 0 0 0.89,-14.42 120.18,120.18 0 0 0 -39.7,-89.38 23.45,23.45 0 0 0 0.38,-5.88 c -1,-15.53 -17.59,-26.08 -33.13,-26.78 a 32.8,32.8 0 0 0 5.53,-34.64 c -9.91,14.44 -30.26,16 -47.77,16.09 7.56,-2.93 11,-13.4 6.56,-20.21 -18.3,24.53 -54,29.08 -75.76,50.59 a 63.86,63.86 0 0 0 -11.78,16.07 120.24,120.24 0 0 0 -45.32,94.13 121.56,121.56 0 0 0 0.87,14.29 33,33 0 0 0 -1.38,9.63 c 0,9.44 3.61,17.28 8.39,19 a 119.88,119.88 0 0 0 7.18,15.47 110.92,110.92 0 0 0 66.54,70 v 33.8 c 0,0.26 0,0.52 0,0.78 -44.58,6 -104.08,33.83 -114.4,71.92 -8.91,32.9 -18.42,69 -23.16,90.24 40.57,28.51 125.69,45.24 179,45.24 50.69,0 133.53,-15.11 172.91,-41.06 -4.16,-23.36 -13.97,-61.09 -23.27,-94.83 z"
       transform="translate(-114.28,-119)"
       id="path46"
       inkscape:connector-curvature="0"
       style="fill:url(#47059453-8610-4293-a227-11546ac98e4d)" />
  </g>
  <path
     d="m 488.78761,493.06421 c 41.55294,0 109.45673,-12.38091 141.73886,-33.65873 -3.49249,-19.10246 -11.53965,-50.02498 -19.16194,-77.69295 -9.70418,-35.23927 -70.9799,-59.66968 -107.52779,-59.66968 h -35.22227 c -36.66686,0 -98.01905,24.56637 -107.60427,59.9586 -7.30788,26.97117 -15.10012,56.58507 -18.98349,73.97103 33.22535,23.37671 103.03259,37.09173 146.7609,37.09173 z"
     id="path50"
     inkscape:connector-curvature="0"
     style="fill:#6c63ff;stroke-width:0.84975332" />
  <circle
     cx="486.64624"
     cy="189.51532"
     r="98.77533"
     id="circle52"
     style="fill:#72351c;stroke-width:0.84975332" />
  <path
     d="m 454.76349,271.77994 h 63.28963 v 50.6283 a 31.644815,31.644815 0 0 1 -31.64482,31.64482 v 0 a 31.644815,31.644815 0 0 1 -31.64481,-31.64482 z"
     id="path54"
     inkscape:connector-curvature="0"
     style="opacity:0.1;stroke-width:0.84975332" />
  <path
     d="m 463.86434,269.43462 h 45.1304 a 9.0753658,9.0753658 0 0 1 9.07537,9.07537 v 41.55294 a 31.644815,31.644815 0 0 1 -31.64481,31.64481 v 0 a 31.644815,31.644815 0 0 1 -31.64482,-31.64481 v -41.55294 a 9.0753658,9.0753658 0 0 1 9.08386,-9.07537 z"
     id="path56"
     inkscape:connector-curvature="0"
     style="fill:#fda57d;stroke-width:0.84975332" />
  <path
     d="m 454.88245,295.675 a 91.085062,91.085062 0 0 0 63.28963,0.17845 v -7.77524 h -63.28963 z"
     id="path58"
     inkscape:connector-curvature="0"
     style="opacity:0.1;stroke-width:0.84975332" />
  <circle
     cx="486.64624"
     cy="209.20409"
     r="90.711166"
     id="circle60"
     style="fill:#fda57d;stroke-width:0.84975332" />
  <path
     d="m 421.9885,126.68455 c 0,0 38.2389,77.59948 146.0726,32.52007 L 542.99338,119.84404 498.4663,103.86868 Z"
     id="path62"
     inkscape:connector-curvature="0"
     style="opacity:0.1;stroke-width:0.84975332" />
  <path
     d="m 421.9885,125.54588 c 0,0 38.2389,77.59948 146.0726,32.52007 L 542.99338,118.69687 498.4663,102.72151 Z"
     id="path64"
     inkscape:connector-curvature="0"
     style="fill:#72351c;stroke-width:0.84975332" />
  <path
     d="m 421.69109,120.30291 a 52.404289,52.404289 0 0 1 12.99272,-21.124872 c 17.84482,-17.64088 47.09333,-21.362799 62.09998,-41.476461 3.60295,5.582879 0.84975,14.165388 -5.37894,16.561693 14.35233,-0.09347 31.03299,-1.351108 39.15663,-13.188172 a 26.886196,26.886196 0 0 1 -4.53768,28.390259 c 12.7463,0.577832 26.34236,9.228321 27.19211,21.949133 0.55234,8.49753 -4.76712,16.5107 -11.7351,21.37129 -6.96797,4.86059 -15.39753,7.09544 -23.69962,8.92241 -24.25196,5.35345 -111.938,27.73595 -96.0901,-21.40528 z"
     id="path66"
     inkscape:connector-curvature="0"
     style="fill:#72351c;stroke-width:0.84975332" />
  <path
     d="m 577.3574,209.99437 h -2.4133 l -46.78742,41.63792 c -45.03693,-21.11637 -78.17731,0 -78.17731,0 l -49.07325,-39.93841 -4.94557,0.62032 a 90.71117,90.71117 0 0 0 181.38835,-2.33682 z m -90.85563,57.63028 c -17.64937,0 -31.95072,-3.57747 -31.95072,-7.98769 0,-4.41022 14.30984,-7.98768 31.95072,-7.98768 17.64088,0 31.95073,3.57746 31.95073,7.98768 0,4.41022 -14.30135,7.98769 -31.95073,7.98769 z"
     id="path68"
     inkscape:connector-curvature="0"
     style="fill:#72351c;stroke-width:0.84975332" />
  <ellipse
     cx="395.89258"
     cy="209.11914"
     rx="8.4380512"
     ry="15.822408"
     id="ellipse70"
     style="fill:#fda57d;stroke-width:0.84975332" />
  <ellipse
     cx="577.34888"
     cy="209.11914"
     rx="8.4380512"
     ry="15.822408"
     id="ellipse72"
     style="fill:#fda57d;stroke-width:0.84975332" />
  <g
     id="g76"
     style="opacity:0.7"
     transform="matrix(0.84975335,0,0,0.84975335,72.977803,49.73089)">
    <rect
       x="279.16"
       y="377.70001"
       width="413.12"
       height="237.89"
       rx="14.5"
       ry="14.5"
       id="rect74"
       style="fill:url(#c720a710-d9a1-4694-b415-864894a8ed00)" />
  </g>
  <rect
     x="316.55112"
     y="374.41318"
     width="338.3378"
     height="198.4174"
     rx="22.807381"
     ry="22.807381"
     id="rect78"
     style="fill:#535461;stroke-width:0.84975332" />
  <circle
     cx="485.72"
     cy="473.63037"
     r="11.446177"
     id="circle80"
     style="fill:#ffffff;stroke-width:0.84975332" />
  <rect
     x="107.95365"
     y="600.82147"
     width="755.52417"
     height="11.446177"
     id="rect82"
     style="fill:#e0e0e0;stroke-width:0.84975332" />
  <rect
     x="107.95365"
     y="600.82147"
     width="755.52417"
     height="3.8153923"
     id="rect84"
     style="opacity:0.1;stroke-width:0.84975332" />
  <path
     d="m 820.2424,501.61273 v 58.81993 a 12.397901,12.397901 0 0 1 -12.3979,12.3979 h 6.35615 a 12.397901,12.397901 0 0 0 12.39791,-12.3979 v -58.81993 z"
     id="path86"
     inkscape:connector-curvature="0"
     style="opacity:0.1;stroke-width:0.84975332" />
  <path
     d="m 780.6354,454.21349 c -1.07069,0.18694 -2.28584,0.47586 -2.81269,1.42758 -0.84975,1.51256 0.67981,3.22057 2.05641,4.24877 2.54926,1.92044 5.23448,3.80689 6.96797,6.48362 1.7335,2.67672 2.27734,6.41563 0.38239,8.99039 -2.47278,3.35652 -8.37007,4.07032 -8.9394,8.20012 -0.3654,2.65123 1.92044,4.91157 4.24877,6.23719 5.72733,3.28004 13.11169,4.15529 17.26698,9.2878 1.69951,-3.52648 5.55739,-5.56588 9.34729,-6.44113 3.7899,-0.87525 7.80074,-0.80727 11.68411,-1.3936 1.24914,-0.18694 2.65973,-0.56933 3.22056,-1.6995 1.08769,-2.20086 -2.00541,-4.8436 -0.94322,-7.05295 0.84975,-1.69951 3.19507,-1.55505 4.93706,-2.22636 2.83818,-1.09618 4.00234,-4.75012 3.20357,-7.64778 -0.79876,-2.89766 -3.0761,-5.22598 -5.47241,-7.10394 -6.44113,-5.09852 -14.19088,-8.03866 -22.0341,-10.19704 -3.64544,-0.99421 -7.9282,-2.54926 -11.7096,-2.71071 -3.61145,-0.17845 -7.78374,0.96022 -11.40369,1.59754 z"
     id="path88"
     inkscape:connector-curvature="0"
     style="fill:#eeeeee;stroke-width:0.84975332" />
</svg>
