<?xml version="1.0" encoding="UTF-8" standalone="no"?>
<svg
   xmlns:dc="http://purl.org/dc/elements/1.1/"
   xmlns:cc="http://creativecommons.org/ns#"
   xmlns:rdf="http://www.w3.org/1999/02/22-rdf-syntax-ns#"
   xmlns:svg="http://www.w3.org/2000/svg"
   xmlns="http://www.w3.org/2000/svg"
   xmlns:sodipodi="http://sodipodi.sourceforge.net/DTD/sodipodi-0.dtd"
   xmlns:inkscape="http://www.inkscape.org/namespaces/inkscape"
   id="e8c09660-db65-4061-a2dc-920e909a0453"
   data-name="Layer 1"
   width="971.44"
   height="662"
   viewBox="0 0 971.43995 662"
   version="1.1"
   sodipodi:docname="undraw_web_development.svg"
   inkscape:version="0.92.4 (5da689c313, 2019-01-14)">
  <metadata
     id="metadata133">
    <rdf:RDF>
      <cc:Work
         rdf:about="">
        <dc:format>image/svg+xml</dc:format>
        <dc:type
           rdf:resource="http://purl.org/dc/dcmitype/StillImage" />
        <dc:title>web_development</dc:title>
      </cc:Work>
    </rdf:RDF>
  </metadata>
  <defs
     id="defs131" />
  <sodipodi:namedview
     pagecolor="#ffffff"
     bordercolor="#666666"
     borderopacity="1"
     objecttolerance="10"
     gridtolerance="10"
     guidetolerance="10"
     inkscape:pageopacity="0"
     inkscape:pageshadow="2"
     inkscape:window-width="1366"
     inkscape:window-height="705"
     id="namedview129"
     showgrid="false"
     inkscape:zoom="0.42464047"
     inkscape:cx="319.71702"
     inkscape:cy="250.44567"
     inkscape:window-x="-8"
     inkscape:window-y="-8"
     inkscape:window-maximized="1"
     inkscape:current-layer="e8c09660-db65-4061-a2dc-920e909a0453" />
  <title
     id="title2">web_development</title>
  <path
     d="m 846.2398,371.78556 -86.57918,40.9764 76.62632,-57.29719 A 432.40219,432.40219 0 0 0 794.44905,300.41016 L 418.96577,393.73838 758.13301,264.35775 a 432.33702,432.33702 0 0 0 -49.2517,-37.54057 L 136.73317,318.97526 A 428.79134,428.79134 0 0 0 42.823403,586.56821 H 904.06134 A 428.56056,428.56056 0 0 0 846.2398,371.78556 Z"
     id="path4"
     inkscape:connector-curvature="0"
     style="fill:#f2f2f2;stroke-width:0.86470771" />
  <path
     d="M 662.05515,200.2128 A 428.87064,428.87064 0 0 0 473.44236,156.80847 c -133.01768,0 -251.94244,60.31568 -330.93257,155.08419 135.2631,-29.63739 370.76696,-80.94142 519.54536,-111.67986 z"
     id="path6"
     inkscape:connector-curvature="0"
     style="fill:#f2f2f2;stroke-width:0.86470771" />
  <path
     d="m 904.06679,584.83879 c 0,13.37184 -124.27284,53.61188 -277.57116,53.61188 -153.29832,0 -277.57118,-40.24004 -277.57118,-53.61188 0,-13.37184 124.27285,5.18824 277.57118,5.18824 153.29833,0 277.57116,-18.56008 277.57116,-5.18824 z"
     id="path8"
     inkscape:connector-curvature="0"
     style="fill:#3f3d56;stroke-width:0.86470771" />
  <path
     d="m 904.06679,584.83879 c 0,13.37184 -124.27284,53.61188 -277.57116,53.61188 -153.29832,0 -277.57118,-40.24004 -277.57118,-53.61188 0,-13.37184 124.27285,5.18824 277.57118,5.18824 153.29833,0 277.57116,-18.56008 277.57116,-5.18824 z"
     id="path10"
     inkscape:connector-curvature="0"
     style="opacity:0.1;stroke-width:0.86470771" />
  <ellipse
     cx="626.49567"
     cy="584.83881"
     rx="277.57117"
     ry="24.211815"
     id="ellipse12"
     style="fill:#3f3d56;stroke-width:0.86470771" />
  <path
     d="m 549.23165,387.79471 c 0,0 11.16413,17.70666 7.17702,22.50087 -3.98711,4.79421 29.91319,4.91406 29.91319,4.91406 0,0 -5.0922,-25.75786 -3.59345,-31.68574 z"
     id="path14"
     inkscape:connector-curvature="0"
     style="fill:#ffb8b8;stroke-width:0.86470771" />
  <path
     d="m 549.23165,387.79471 c 0,0 11.16413,17.70666 7.17702,22.50087 -3.98711,4.79421 29.91319,4.91406 29.91319,4.91406 0,0 -5.0922,-25.75786 -3.59345,-31.68574 z"
     id="path16"
     inkscape:connector-curvature="0"
     style="opacity:0.1;stroke-width:0.86470771" />
  <circle
     cx="567.07355"
     cy="359.20453"
     r="35.007233"
     id="circle18"
     style="fill:#ff6584;stroke-width:0.86470771" />
  <polygon
     points="725.494,472.5 723.494,455.5 701.494,453.5 701.494,477.5 "
     id="polygon20"
     style="fill:#ffb8b8"
     transform="matrix(0.86470772,0,0,0.86470772,42.823403,156.80847)" />
  <path
     d="m 722.91054,552.41224 57.93542,9.51179 -14.70003,21.61769 c 0,0 -40.64126,-13.83532 -51.01776,-13.83532 -10.37649,0 7.78237,-17.29416 7.78237,-17.29416 z"
     id="path22"
     inkscape:connector-curvature="0"
     style="fill:#ffb8b8;stroke-width:0.86470771" />
  <path
     d="m 591.47497,510.90628 c 0,0 43.23538,-50.15305 57.07071,-47.55893 13.83531,2.59412 19.88827,18.15887 19.88827,18.15887 l 7.78237,76.95898 c 0,0 -27.67064,2.59413 -27.67064,0 0,-2.59412 -5.18825,-57.93542 -5.18825,-57.93542 0,0 -40.64126,89.92961 -62.25896,30.26477 z"
     id="path24"
     inkscape:connector-curvature="0"
     style="fill:#2f2e41;stroke-width:0.86470771" />
  <path
     d="m 521.43364,544.62988 c 0,0 0.86471,43.23538 26.80594,45.82951 25.94124,2.59412 54.47659,-17.29416 54.47659,-17.29416 l 46.69422,-22.37005 c 0,0 55.34129,29.28772 71.77073,21.50534 0,0 17.29415,-18.15886 6.05296,-23.3471 -11.2412,-5.18825 -0.86471,0 -0.86471,0 l -66.58249,-34.58831 c 0,0 -12.97062,-3.45883 -35.45302,6.05295 -22.4824,9.51178 -52.74717,13.83533 -52.74717,13.83533 z"
     id="path26"
     inkscape:connector-curvature="0"
     style="fill:#2f2e41;stroke-width:0.86470771" />
  <circle
     cx="564.66907"
     cy="370.82361"
     r="25.941233"
     id="circle28"
     style="fill:#ffb8b8;stroke-width:0.86470771" />
  <path
     d="m 601.85146,443.45907 -1.72942,36.31773 c 0,0 0.86471,47.55893 -6.91766,51.01775 -3.93442,1.74671 -11.83785,5.25743 -19.14463,9.09673 -5.48225,2.87083 -10.62726,5.9146 -13.49808,8.53467 a 9.6798063,9.6798063 0 0 0 -1.9456,2.25689 c -3.45883,6.05295 -25.94123,5.18824 -31.12947,0.8647 -5.18825,-4.32354 -1.72942,5.18825 -6.05296,6.91766 -4.18519,1.67754 -9.98738,-12.03673 -6.43343,-32.513 0.11239,-0.68312 0.24212,-1.37489 0.38048,-2.07531 3.969,-19.84504 -2.26554,-67.37802 -1.30571,-85.74442 a 32.313159,32.313159 0 0 1 0.441,-4.18518 c 2.59412,-13.83533 35.69513,-41.9902 41.88644,-29.99672 7.62673,14.80381 25.1457,1.27978 28.15489,-5.4563 17.29415,-0.86471 23.3471,19.88829 23.3471,19.88829 z"
     id="path30"
     inkscape:connector-curvature="0"
     style="fill:#3f3d56;stroke-width:0.86470771" />
  <path
     d="m 671.89279,561.92403 c 0,0 -13.83533,5.18825 -18.15887,4.32354 -4.32353,-0.86471 -8.64708,2.59413 -8.64708,7.78237 0,5.18825 -5.18824,17.29416 2.59413,18.15887 7.78237,0.8647 39.77655,-0.86471 46.69422,1.7294 0,0 31.12948,0.86471 28.53535,-12.1059 -2.59413,-12.97061 -15.56474,-12.10591 -15.56474,-12.10591 0,0 -35.45301,-1.72941 -35.45301,-7.78237 z"
     id="path32"
     inkscape:connector-curvature="0"
     style="fill:#2f2e41;stroke-width:0.86470771" />
  <path
     d="m 773.06358,564.51815 c 0,0 1.72942,-5.18824 4.32355,-5.18824 2.59412,0 23.34711,3.45883 25.94123,2.59412 2.59412,-0.8647 32.8589,-2.59412 27.67064,12.10591 -5.18824,14.70003 -22.4824,16.42945 -22.4824,16.42945 0,0 -31.12947,-3.45883 -35.45302,-2.59413 -4.32353,0.86471 -19.88827,0 -17.29415,-4.32354 2.59413,-4.32353 19.02357,-12.1059 17.29415,-19.02357 z"
     id="path34"
     inkscape:connector-curvature="0"
     style="fill:#2f2e41;stroke-width:0.86470771" />
  <path
     d="m 694.35274,440.31453 4.74394,19.56873 a 1.222299,1.222299 0 0 1 -0.0238,0.66047 l -21.51948,67.24832 a 1.2222643,1.2222643 0 0 1 -2.37856,-0.2345 l -2.97696,-26.19732 a 1.222273,1.222273 0 0 1 0.0523,-0.51668 l 19.75252,-60.61977 a 1.2222643,1.2222643 0 0 1 2.34998,0.0908 z"
     id="path36"
     inkscape:connector-curvature="0"
     style="fill:#d0cde1;stroke-width:0.86470771" />
  <polygon
     points="734.565,420.104 729.5,398.155 751.45,329.775 756.515,349.191 "
     id="polygon38"
     style="fill:#f2f2f2"
     transform="matrix(0.86470772,0,0,0.86470772,42.823403,156.80847)" />
  <path
     d="m 596.97898,533.21579 c 0.72999,2.18996 75.91892,-0.72999 76.64891,-1.45998 a 15.845215,15.845215 0 0 0 1.60594,-2.91996 c 0.68624,-1.45997 1.31403,-2.91995 1.31403,-2.91995 l -2.91997,-23.63707 -74.45895,-2.64255 c 0,0 -1.8615,20.03096 -2.24111,29.19959 a 21.90424,21.90424 0 0 0 0.0511,4.37992 z"
     id="path40"
     inkscape:connector-curvature="0"
     style="fill:#d0cde1;stroke-width:0.86470771" />
  <polygon
     points="682.225,426.858 682.225,403.22 718.526,403.22 720.214,426.858 "
     id="polygon42"
     style="opacity:0.1"
     transform="matrix(0.86470772,0,0,0.86470772,42.823403,156.80847)" />
  <polygon
     points="669.562,410.818 669.789,410.773 668.718,420.949 647.612,420.949 647.612,410.818 "
     id="polygon44"
     style="opacity:0.1"
     transform="matrix(0.86470772,0,0,0.86470772,42.823403,156.80847)" />
  <path
     d="m 596.97898,533.21579 c 0.72999,2.18996 75.91892,-0.72999 76.64891,-1.45998 a 15.845215,15.845215 0 0 0 1.60594,-2.91996 h -78.30598 a 21.90424,21.90424 0 0 0 0.0511,4.37994 z"
     id="path46"
     inkscape:connector-curvature="0"
     style="opacity:0.1;stroke-width:0.86470771" />
  <path
     d="m 585.34623,296.89111 a 19.135869,19.135869 0 0 1 -11.0414,7.59041 c -7.72098,2.06752 -0.063,13.67005 -0.063,13.67005 0,0 -2.78472,-4.21911 1.23185,-8.68724 4.01656,-4.46815 10.48024,-7.5229 9.87261,-12.57322 z"
     id="path48"
     inkscape:connector-curvature="0"
     style="fill:#ff6584;stroke-width:0.86470771" />
  <circle
     cx="572.87354"
     cy="320.93491"
     r="9.7561169"
     id="circle50"
     style="fill:#ff6584;stroke-width:0.86470771" />
  <path
     d="m 585.32945,329.11212 c -7.95336,-3.00826 -21.19642,-4.53359 -28.00961,-3.49091 l 0.9344,-6.82298 c 6.55006,3.38528 19.73234,4.97614 28.00962,3.4909 z"
     id="path52"
     inkscape:connector-curvature="0"
     style="fill:#3f3d56;stroke-width:0.86470771" />
  <path
     d="m 569.9397,331.5544 c 0,0 -9.96773,16.57969 -33.14607,22.78631 -23.17833,6.20663 -0.18937,41.03723 -0.18937,41.03723 0,0 -8.35963,-12.66568 3.698,-26.07896 12.05764,-13.41329 31.46155,-22.58364 29.63744,-37.74458 z"
     id="path54"
     inkscape:connector-curvature="0"
     style="fill:#ff6584;stroke-width:0.86470771" />
  <path
     d="m 570.73077,330.5469 c 0,0 9.57572,22.77295 20.08837,24.926 10.51266,2.15305 9.71529,38.13659 -6.72482,43.53248 0,0 11.98784,-21.0951 1.74098,-35.24264 -10.24687,-14.14754 -16.71928,-25.33135 -15.10453,-33.21584 z"
     id="path56"
     inkscape:connector-curvature="0"
     style="fill:#ff6584;stroke-width:0.86470771" />
  <path
     d="m 574.05974,539.89128 c -2.13583,4.03818 -4.64348,8.23202 -5.06719,9.92685 -0.28536,1.15006 -3.45018,0.48423 -8.43091,-1.39218 -9.98737,-3.77878 -27.29882,-12.4345 -43.45155,-21.09022 a 13.640765,13.640765 0 0 1 -2.10989,-1.38353 c 0.11239,-0.68312 0.24211,-1.37489 0.38047,-2.07531 3.96901,-19.84504 -2.26553,-67.37802 -1.30571,-85.74442 l 7.35866,-2.45576 14.70004,13.83532 v 58.80012 c 0,0 38.04713,20.75298 40.64126,22.4824 1.32304,0.88201 -0.50153,4.90289 -2.71518,9.09673 z"
     id="path58"
     inkscape:connector-curvature="0"
     style="opacity:0.1;stroke-width:0.86470771" />
  <path
     d="m 606.175,492.74742 23.3471,12.10591 c 0,0 13.83533,-14.70004 22.4824,-3.45884 8.64709,11.2412 -25.07651,14.70004 -25.07651,14.70004 0,0 -29.40007,-6.91767 -30.26477,-16.42945 -0.86471,-9.51179 9.51178,-6.91766 9.51178,-6.91766 z"
     id="path60"
     inkscape:connector-curvature="0"
     style="fill:#ffb8b8;stroke-width:0.86470771" />
  <path
     d="m 567.26315,524.7416 13.83532,3.45884 c 0,0 15.56475,-19.02358 31.99419,-12.10591 16.42944,6.91766 -20.75299,20.75298 -20.75299,20.75298 0,0 -19.88827,10.37649 -27.67065,1.72942 -7.78236,-8.64709 2.59413,-13.83533 2.59413,-13.83533 z"
     id="path62"
     inkscape:connector-curvature="0"
     style="fill:#ffb8b8;stroke-width:0.86470771" />
  <path
     d="m 597.52792,410.60018 c 0.8647,0.86471 10.37649,7.78238 10.37649,7.78238 0,0 2.59412,32.85889 -0.8647,39.77655 -3.45883,6.91766 -6.05296,6.91766 -3.45883,10.37649 2.59412,3.45883 6.05295,0.86471 2.59412,6.91766 -3.45883,6.05296 -6.91767,5.18825 -4.32354,7.78237 2.59412,2.59412 1.72942,3.45883 1.72942,3.45883 l 10.37649,8.64707 c 0,0 -6.36624,10.13986 -14.42432,9.39347 -8.05808,-0.74637 -14.97574,-39.65823 -14.97574,-39.65823 z"
     id="path64"
     inkscape:connector-curvature="0"
     style="fill:#3f3d56;stroke-width:0.86470771" />
  <path
     d="m 521.43364,431.35316 -7.78237,2.59413 c 0,0 -20.75298,76.09428 3.45883,89.0649 24.21182,12.97061 51.01776,25.94123 51.88247,22.4824 0.8647,-3.45884 10.37649,-17.29415 7.78236,-19.02357 -2.59411,-1.72942 -40.64126,-22.4824 -40.64126,-22.4824 v -58.80013 z"
     id="path66"
     inkscape:connector-curvature="0"
     style="fill:#3f3d56;stroke-width:0.86470771" />
  <polygon
     points="617.994,427 568.994,402 566.994,354 564.994,402 "
     id="polygon68"
     style="opacity:0.1"
     transform="matrix(0.86470772,0,0,0.86470772,42.823403,156.80847)" />
  <path
     d="m 918.85352,555.99473 c -17.42816,10.27656 -24.28806,30.93416 -24.28806,30.93416 0,0 21.39682,3.996 38.82509,-6.28055 17.42819,-10.27656 24.28808,-30.93416 24.28808,-30.93416 0,0 -21.39684,-3.99598 -38.82511,6.28055 z"
     id="path70"
     inkscape:connector-curvature="0"
     style="fill:#3f3d56;stroke-width:0.86470771" />
  <path
     d="m 924.96051,562.36612 c -9.75978,17.72283 -30.20672,25.18706 -30.20672,25.18706 0,0 -4.62333,-21.27016 5.13645,-38.99298 9.75967,-17.72282 30.20673,-25.18705 30.20673,-25.18705 0,0 4.62325,21.27016 -5.13646,38.99297 z"
     id="path72"
     inkscape:connector-curvature="0"
     style="fill:#6c63ff;stroke-width:0.86470771" />
  <circle
     cx="61.84148"
     cy="353.96182"
     r="3.4588308"
     id="circle74"
     style="fill:#6c63ff;stroke-width:0.86470771" />
  <circle
     cx="71.353256"
     cy="353.96182"
     r="3.4588308"
     id="circle76"
     style="fill:#6c63ff;stroke-width:0.86470771" />
  <circle
     cx="80.865044"
     cy="353.96182"
     r="3.4588308"
     id="circle78"
     style="fill:#6c63ff;stroke-width:0.86470771" />
  <rect
     x="111.12983"
     y="484.42249"
     width="50.153049"
     height="5.1882463"
     id="rect80"
     style="opacity:0.3;fill:#6c63ff;stroke-width:0.86470771" />
  <rect
     x="111.12983"
     y="495.66373"
     width="47.442066"
     height="5.1882463"
     id="rect82"
     style="opacity:0.3;fill:#6c63ff;stroke-width:0.86470771" />
  <rect
     x="111.12983"
     y="506.90488"
     width="34.564934"
     height="5.1882463"
     id="rect84"
     style="opacity:0.3;fill:#6c63ff;stroke-width:0.86470771" />
  <g
     id="g98"
     style="opacity:0.3"
     transform="matrix(0.86470772,0,0,0.86470772,42.823403,156.80847)">
    <rect
       x="213.99365"
       y="378.87256"
       width="58"
       height="6"
       id="rect86"
       style="fill:#6c63ff" />
    <rect
       x="213.99365"
       y="391.87256"
       width="54.864861"
       height="6"
       id="rect88"
       style="fill:#6c63ff" />
    <rect
       x="213.99365"
       y="404.87256"
       width="39.972969"
       height="6"
       id="rect90"
       style="fill:#6c63ff" />
    <rect
       x="213.99365"
       y="378.87256"
       width="58"
       height="6"
       id="rect92"
       style="opacity:0.3;fill:#6c63ff" />
    <rect
       x="213.99365"
       y="391.87256"
       width="54.864861"
       height="6"
       id="rect94"
       style="opacity:0.3;fill:#6c63ff" />
    <rect
       x="213.99365"
       y="404.87256"
       width="39.972969"
       height="6"
       id="rect96"
       style="opacity:0.3;fill:#6c63ff" />
  </g>
  <rect
     x="348.92447"
     y="484.42249"
     width="50.153049"
     height="5.1882463"
     id="rect100"
     style="opacity:0.3;fill:#6c63ff;stroke-width:0.86470771" />
  <rect
     x="348.92447"
     y="495.66373"
     width="47.442066"
     height="5.1882463"
     id="rect102"
     style="opacity:0.3;fill:#6c63ff;stroke-width:0.86470771" />
  <rect
     x="348.92447"
     y="506.90488"
     width="34.564934"
     height="5.1882463"
     id="rect104"
     style="opacity:0.3;fill:#6c63ff;stroke-width:0.86470771" />
  <rect
     x="104.21214"
     y="416.97528"
     width="63.988369"
     height="57.070709"
     id="rect106"
     style="opacity:0.3;fill:#6c63ff;stroke-width:0.86470771" />
  <rect
     x="220.94769"
     y="416.97528"
     width="63.988369"
     height="57.070709"
     id="rect108"
     style="fill:#3f3d56;stroke-width:0.86470771" />
  <rect
     x="342.00681"
     y="416.97528"
     width="63.988369"
     height="57.070709"
     id="rect110"
     style="fill:#3f3d56;stroke-width:0.86470771" />
  <path
     d="m 244.60492,473.8061 -0.84418,-0.0165 c 0.0181,-0.93488 0.54575,-22.96779 9.21967,-29.05765 l 0.48476,0.69085 c -8.32398,5.84419 -8.85612,28.15864 -8.86025,28.38329 z"
     id="path112"
     inkscape:connector-curvature="0"
     style="fill:#6c63ff;stroke-width:0.86470771" />
  <circle
     cx="257.44376"
     cy="440.23239"
     r="4.2209325"
     id="circle114"
     style="fill:#6c63ff;stroke-width:0.86470771" />
  <path
     d="m 256.59033,455.13629 a 13.1415,13.1415 0 0 1 -6.78059,0.29278 11.976341,11.976341 0 0 1 12.3133,-4.22358 13.141421,13.141421 0 0 1 -5.53271,3.9308 z"
     id="path116"
     inkscape:connector-curvature="0"
     style="fill:#6c63ff;stroke-width:0.86470771" />
  <path
     d="m 365.66401,473.8061 -0.84419,-0.0165 c 0.0181,-0.93488 0.54575,-22.96779 9.21967,-29.05765 l 0.48476,0.69085 c -8.32398,5.84419 -8.85613,28.15864 -8.86024,28.38329 z"
     id="path118"
     inkscape:connector-curvature="0"
     style="fill:#6c63ff;stroke-width:0.86470771" />
  <circle
     cx="378.50281"
     cy="440.23239"
     r="4.2209325"
     id="circle120"
     style="fill:#6c63ff;stroke-width:0.86470771" />
  <path
     d="m 377.64941,455.13629 a 13.1415,13.1415 0 0 1 -6.78059,0.29278 11.976341,11.976341 0 0 1 12.3133,-4.22358 13.141421,13.141421 0 0 1 -5.53271,3.9308 z"
     id="path122"
     inkscape:connector-curvature="0"
     style="fill:#6c63ff;stroke-width:0.86470771" />
  <path
     d="M 462.20116,583.97408 H 48.006165 V 344.45004 H 462.20116 Z M 49.735583,582.24466 H 460.47174 V 346.17946 H 49.735583 Z"
     id="path124"
     inkscape:connector-curvature="0"
     style="fill:#2f2e41;stroke-width:0.86470771" />
  <rect
     x="48.870865"
     y="361.80035"
     width="412.46558"
     height="1.7294154"
     id="rect126"
     style="fill:#2f2e41;stroke-width:0.86470771" />
</svg>
